<svg width="406" height="406" viewBox="0 0 406 406" fill="none" xmlns="http://www.w3.org/2000/svg">
<path d="M135.873 296.867C134.074 296.867 132.274 295.967 131.074 294.768L110.678 274.372C107.979 271.972 107.979 267.473 110.678 264.773L185.964 189.788C187.163 188.288 189.263 187.688 191.363 187.688C193.162 187.988 195.262 188.888 196.162 190.688C198.861 194.287 201.561 197.587 204.86 200.886C207.859 203.885 211.159 206.585 214.758 209.284C216.558 210.484 217.458 212.284 217.758 214.083C218.057 216.183 217.158 218.283 215.658 219.782L140.673 294.768C139.473 295.967 137.673 296.867 135.873 296.867Z" fill="#FFA721"/>
<path d="M174.866 145.097C173.066 145.097 171.267 144.497 170.067 143.297C167.367 140.598 167.367 136.098 170.067 133.699L301.441 2.0246C304.141 -0.674868 308.34 -0.674868 311.039 2.0246C313.739 4.72408 313.739 9.2232 311.039 11.6227L179.665 143.297C178.465 144.497 176.666 145.097 174.866 145.097ZM181.465 184.689C179.965 184.689 178.165 183.789 176.666 182.589C174.266 179.89 174.266 175.691 176.666 172.991L341.033 8.92326C343.433 6.22378 347.932 6.22378 350.632 8.92326C353.331 11.6227 353.331 15.8219 350.632 18.5214L186.564 182.589C185.064 183.789 183.264 184.689 181.465 184.689ZM227.656 230.88C225.856 230.88 224.356 229.98 222.857 228.78C220.157 226.081 220.157 221.882 222.857 219.182L386.924 55.1142C389.624 52.4148 394.123 52.4148 396.523 55.1142C399.222 57.5138 399.222 62.0129 396.523 64.7124L232.455 228.78C231.255 229.98 229.455 230.88 227.656 230.88ZM267.248 237.479C265.448 237.479 263.649 236.879 262.449 235.379C259.749 232.68 259.749 228.48 262.449 225.781L393.823 94.4066C396.523 91.7071 400.722 91.7071 403.421 94.4066C406.121 97.106 406.121 101.305 403.421 104.005L272.047 235.379C270.547 236.879 268.748 237.479 267.248 237.479Z" fill="#DEDEDE"/>
<path d="M288.844 234.779C287.344 234.779 285.544 234.179 284.045 232.679L172.766 121.401C170.067 118.702 170.067 114.503 172.766 111.803C175.466 109.104 179.665 109.104 182.364 111.803L293.643 223.081C296.342 225.781 296.342 229.98 293.643 232.679C292.443 234.179 290.643 234.779 288.844 234.779ZM338.034 212.583C336.234 212.583 334.735 211.983 333.235 210.484L194.962 72.2108C192.262 69.5113 192.262 65.3121 194.962 62.6127C197.661 59.9132 201.861 59.9132 204.56 62.6127L342.833 200.886C345.533 203.585 345.533 208.084 342.833 210.484C341.633 211.983 339.834 212.583 338.034 212.583ZM373.727 176.89C371.927 176.89 370.128 176.29 368.928 175.091L230.655 36.5178C227.956 34.1182 227.956 29.6191 230.655 26.9196C233.354 24.2202 237.554 24.2202 240.253 26.9196L378.526 165.193C381.226 167.892 381.226 172.391 378.526 175.091C377.326 176.29 375.527 176.89 373.727 176.89ZM395.923 127.7C394.123 127.7 392.323 127.1 391.124 125.9L279.545 14.622C277.146 11.9226 277.146 7.42344 279.545 4.72396C282.245 2.32443 286.744 2.32443 289.444 4.72396L400.722 116.302C403.421 119.002 403.421 123.201 400.722 125.9C399.222 127.1 397.722 127.7 395.923 127.7Z" fill="#DEDEDE"/>
<path d="M45.2912 405.446C43.4915 405.446 41.9918 404.846 40.4921 403.646L2.09959 364.954C0.599883 363.754 0 361.954 0 360.155C0 358.355 0.599883 356.555 2.09959 355.356L81.2841 276.171C81.884 275.571 82.7838 274.971 83.6837 274.671L113.078 263.274C115.777 262.374 118.477 262.974 120.277 264.773L140.673 285.169C142.472 286.969 143.072 289.968 142.172 292.368L131.074 322.062C130.475 322.962 130.175 323.562 129.275 324.462L50.0902 403.646C48.8905 404.846 47.0908 405.446 45.2912 405.446Z" fill="#FF3131"/>
<path d="M23.0955 334.36L32.6936 324.762L80.9842 372.752L71.386 382.35L23.0955 334.36ZM47.0908 310.364L56.6889 300.766L104.979 348.757L95.0814 358.655L47.0908 310.364ZM71.0861 286.369L80.6842 276.771L128.675 325.062L119.077 334.66L71.0861 286.369Z" fill="white"/>
<path d="M200.061 212.284C198.261 212.284 196.462 211.684 195.262 210.484C192.562 207.784 192.562 203.285 195.262 200.886L368.628 27.2197C371.328 24.5202 375.527 24.5202 378.226 27.2197C380.926 29.9191 380.926 34.1183 378.226 36.8178L204.86 210.484C203.36 211.684 201.561 212.284 200.061 212.284Z" fill="#DEDEDE"/>
<path d="M263.948 237.479C236.954 237.479 212.659 227.88 195.262 210.484C153.57 168.792 160.769 93.8066 211.159 43.4164C238.753 15.8218 274.446 0.224854 309.54 0.224854C336.534 0.224854 360.83 9.82298 378.226 27.2196C419.918 68.9114 412.719 143.897 362.329 194.287C334.735 221.882 299.042 237.479 263.948 237.479ZM309.54 13.7222C278.046 13.7222 245.952 28.1194 220.757 53.0145C175.766 98.3057 168.567 164.593 204.86 200.886C219.857 215.883 240.253 223.981 263.948 223.981C295.442 223.981 327.536 209.584 352.431 184.689C397.722 139.398 404.921 73.1106 368.628 36.8177C353.631 21.8206 333.235 13.7222 309.54 13.7222Z" fill="#FF3131"/>
</svg>
