<svg width="10" height="10" viewBox="0 0 10 10" fill="none" xmlns="http://www.w3.org/2000/svg">
<path fill-rule="evenodd" clip-rule="evenodd" d="M5 10C7.76142 10 10 7.76142 10 5C10 2.23858 7.76142 0 5 0C2.23858 0 0 2.23858 0 5C0 7.76142 2.23858 10 5 10ZM2.77956 6.57384C3.02667 6.30012 3.21156 6.01601 3.32889 5.72844C2.74933 5.62103 2.33333 5.12038 2.33333 4.54869C2.33342 4.37866 2.37 4.21053 2.44072 4.05509C2.51144 3.89966 2.61475 3.76035 2.744 3.64613C3.00533 3.41746 3.35733 3.30485 3.71111 3.3395C4.34933 3.4036 4.84 3.96488 4.82756 4.61799C4.79378 6.31225 3.57244 6.84062 3.04978 6.9896C3.02489 6.99827 3 7 2.97511 7C2.88622 7 2.80444 6.95842 2.75467 6.8822C2.69067 6.78518 2.70133 6.66045 2.77956 6.57384ZM5.58311 3.64613C5.84444 3.41746 6.19644 3.30485 6.54844 3.3395C7.18133 3.4036 7.66667 3.95103 7.66667 4.59374V4.61799C7.63289 6.31225 6.41156 6.84062 5.88889 6.9896C5.864 6.99827 5.83911 7 5.81422 7C5.72533 7 5.64356 6.95842 5.59378 6.8822C5.52978 6.78518 5.54044 6.66045 5.61867 6.57384C5.86578 6.30012 6.05067 6.01601 6.168 5.72844C5.58844 5.62103 5.17244 5.12038 5.17244 4.54869C5.17252 4.37866 5.20909 4.21053 5.27982 4.05509C5.35054 3.89965 5.45385 3.76034 5.58311 3.64613Z" fill="white"/>
</svg>
