<svg width="13" height="21" viewBox="0 0 13 21" fill="none" xmlns="http://www.w3.org/2000/svg">
<path d="M6.125 13.8652V13.413L5.675 13.3677C4.25669 13.2252 2.94188 12.5609 1.98566 11.5038C1.02944 10.4466 0.499982 9.07195 0.5 7.64649V5H1H11.5H12V7.64648C12 9.07195 11.4706 10.4466 10.5143 11.5038C9.55812 12.5609 8.24331 13.2252 6.825 13.3677L6.375 13.413V13.8652V18.8965V19.3965H6.875H9.375C9.40815 19.3965 9.43995 19.4097 9.46339 19.4331C9.48683 19.4565 9.5 19.4883 9.5 19.5215C9.5 19.5546 9.48683 19.5864 9.46339 19.6099C9.43995 19.6333 9.40815 19.6465 9.375 19.6465H3.125C3.09185 19.6465 3.06005 19.6333 3.03661 19.6099C3.01317 19.5864 3 19.5546 3 19.5215C3 19.4883 3.01317 19.4565 3.03661 19.4331C3.06005 19.4097 3.09185 19.3965 3.125 19.3965H5.625H6.125V18.8965V13.8652Z" stroke="#282828"/>
</svg>
