<svg width="24" height="25" viewBox="0 0 24 25" fill="none" xmlns="http://www.w3.org/2000/svg">
<path d="M15.6325 2.57711L20.7822 7.05375C20.9906 7.23492 21.0127 7.55073 20.8316 7.75914L19.1142 9.7347L13.2097 4.602L14.9271 2.62644C15.1082 2.41803 15.4241 2.39595 15.6325 2.57711Z" stroke="#282828"/>
<rect x="11.4339" y="3.05841" width="12.5294" height="3.11765" rx="0.5" transform="rotate(41 11.4339 3.05841)" stroke="#282828"/>
<path d="M2.85853 17.2719L8.00831 21.7485C8.21672 21.9297 8.53253 21.9076 8.71369 21.6992L10.431 19.7236L4.52653 14.5909L2.8092 16.5665C2.62804 16.7749 2.65012 17.0907 2.85853 17.2719Z" stroke="#282828"/>
<rect x="0.705384" y="-0.0493253" width="12.5294" height="3.11765" rx="0.5" transform="matrix(0.754709 0.656059 0.656059 -0.754709 2.25076 12.5471)" stroke="#282828"/>
<rect x="13.2608" y="10.1024" width="1" height="5" transform="rotate(41 13.2608 10.1024)" stroke="#282828"/>
</svg>
