<svg width="20" height="15" viewBox="0 0 20 15" fill="none" xmlns="http://www.w3.org/2000/svg">
<path fill-rule="evenodd" clip-rule="evenodd" d="M13.25 0C11.4447 0 9.926 1.2945 9.5765 3H0.75C0.551088 3 0.360322 3.07902 0.21967 3.21967C0.0790175 3.36032 0 3.55109 0 3.75C0 3.94891 0.0790175 4.13968 0.21967 4.28033C0.360322 4.42098 0.551088 4.5 0.75 4.5H9.5765C9.926 6.20625 11.444 7.5 13.25 7.5C15.056 7.5 16.574 6.20625 16.9235 4.5H18.25C18.4489 4.5 18.6397 4.42098 18.7803 4.28033C18.921 4.13968 19 3.94891 19 3.75C19 3.55109 18.921 3.36032 18.7803 3.21967C18.6397 3.07902 18.4489 3 18.25 3H16.9235C16.574 1.2945 15.056 0 13.25 0ZM13.25 1.5C14.5017 1.5 15.5 2.49825 15.5 3.75C15.5 5.00175 14.5017 6 13.25 6C11.9983 6 11 5.00175 11 3.75C11 2.49825 11.9983 1.5 13.25 1.5ZM5.75 7.5C3.94475 7.5 2.426 8.7945 2.0765 10.5H0.75C0.551088 10.5 0.360322 10.579 0.21967 10.7197C0.0790175 10.8603 0 11.0511 0 11.25C0 11.4489 0.0790175 11.6397 0.21967 11.7803C0.360322 11.921 0.551088 12 0.75 12H2.0765C2.426 13.7062 3.944 15 5.75 15C7.556 15 9.074 13.7062 9.4235 12H19.25C19.4489 12 19.6397 11.921 19.7803 11.7803C19.921 11.6397 20 11.4489 20 11.25C20 11.0511 19.921 10.8603 19.7803 10.7197C19.6397 10.579 19.4489 10.5 19.25 10.5H9.4235C9.074 8.7945 7.556 7.5 5.75 7.5ZM5.75 9C7.00175 9 8 9.99825 8 11.25C8 12.5017 7.00175 13.5 5.75 13.5C4.49825 13.5 3.5 12.5017 3.5 11.25C3.5 9.99825 4.49825 9 5.75 9Z" fill="#767676"/>
</svg>
