<svg width="16" height="16" viewBox="0 0 16 16" fill="none" xmlns="http://www.w3.org/2000/svg">
<path d="M8.12498 0.625001C6.80157 0.624408 5.50159 0.974164 4.35714 1.63873C3.21268 2.30329 2.26455 3.25897 1.60909 4.40866C0.95363 5.55835 0.6142 6.86107 0.625294 8.18444C0.636388 9.5078 0.997611 10.8046 1.67226 11.9432L0.666574 14.71C0.629102 14.813 0.616995 14.9234 0.63128 15.0321C0.645564 15.1407 0.685818 15.2443 0.748633 15.3341C0.811449 15.4238 0.894974 15.4972 0.992136 15.5478C1.0893 15.5984 1.19723 15.6249 1.3068 15.625C1.3863 15.6248 1.46517 15.611 1.53998 15.5841L4.3068 14.5777C5.29979 15.166 6.41514 15.5171 7.56602 15.6038C8.7169 15.6905 9.87227 15.5104 10.9422 15.0776C12.0121 14.6447 12.9677 13.9708 13.7345 13.1083C14.5014 12.2457 15.0588 11.2178 15.3634 10.1046C15.6681 8.99139 15.7117 7.82288 15.4909 6.69006C15.27 5.55723 14.7908 4.49065 14.0903 3.57335C13.3899 2.65605 12.4872 1.91278 11.4525 1.4014C10.4179 0.890014 9.27913 0.624321 8.12498 0.625001Z" fill="#DDDDDD"/>
</svg>
