<svg width="15" height="15" viewBox="0 0 15 15" fill="none" xmlns="http://www.w3.org/2000/svg">
<circle cx="7.5" cy="7.5" r="7.5" fill="url(#paint0_linear_11_58)"/>
<path fill-rule="evenodd" clip-rule="evenodd" d="M5.34693 3.79363C6.0009 3.41388 6.74375 3.21402 7.49998 3.21436C8.15949 3.21397 8.8102 3.36579 9.40144 3.65801C9.99267 3.95023 10.5085 4.37496 10.9087 4.89913C11.309 5.4233 11.5829 6.03277 11.7091 6.6801C11.8352 7.32743 11.8103 7.99515 11.6362 8.63127C11.4622 9.26739 11.1436 9.85476 10.7054 10.3476C10.2672 10.8405 9.72118 11.2256 9.1098 11.473C8.49843 11.7203 7.83822 11.8232 7.18057 11.7737C6.52293 11.7241 5.88558 11.5235 5.31816 11.1873L3.73712 11.7624C3.69437 11.7778 3.6493 11.7857 3.60388 11.7858C3.54127 11.7857 3.47959 11.7706 3.42407 11.7417C3.36855 11.7127 3.32082 11.6708 3.28492 11.6195C3.24903 11.5682 3.22603 11.509 3.21787 11.447C3.2097 11.3849 3.21662 11.3218 3.23803 11.2629L3.81271 9.68189C3.4272 9.03129 3.22078 8.29024 3.21445 7.53403C3.20811 6.77782 3.40207 6.03341 3.77661 5.37645C4.15116 4.71948 4.69295 4.17338 5.34693 3.79363ZM7.42153 9.96933C7.4458 9.98335 7.47289 9.99035 7.49999 9.99035C7.52771 9.99035 7.55493 9.98302 7.57889 9.96909C7.60506 9.95388 8.227 9.59017 8.8601 9.04218C9.23524 8.71747 9.53545 8.39546 9.75239 8.08507C10.0329 7.68378 10.1763 7.29783 10.1785 6.93797C10.1813 6.50058 10.0126 6.07831 9.71557 5.77945C9.44495 5.50712 9.09248 5.35714 8.72305 5.35714C8.22189 5.35714 7.7637 5.63788 7.5 6.08257C7.2363 5.63787 6.77811 5.35714 6.27695 5.35714C5.88592 5.35714 5.51927 5.52336 5.24453 5.8252C4.97435 6.12204 4.82411 6.51652 4.82145 6.93599C4.81918 7.29647 4.95992 7.683 5.23979 8.08485C5.45606 8.39539 5.75669 8.71756 6.1333 9.04236C6.76872 9.5904 7.39516 9.95412 7.42153 9.96933Z" fill="white"/>
<defs>
<linearGradient id="paint0_linear_11_58" x1="7.5" y1="0" x2="7.5" y2="15" gradientUnits="userSpaceOnUse">
<stop stop-color="#FFBB00"/>
<stop offset="1" stop-color="#FFCB3E"/>
</linearGradient>
</defs>
</svg>
