<svg width="512" height="387" viewBox="0 0 512 387" fill="none" xmlns="http://www.w3.org/2000/svg">
<path d="M388.378 309.054L450.189 386.318H473.368C475.417 386.318 477.383 385.504 478.832 384.055C480.281 382.606 481.095 380.641 481.095 378.591V309.054H388.378Z" fill="#9B3310"/>
<path d="M30.9054 309.054V378.591C30.9054 380.641 31.7195 382.606 33.1684 384.055C34.6174 385.504 36.5826 386.318 38.6318 386.318H450.189V309.054H30.9054Z" fill="#BA3D13"/>
<path d="M504.274 339.96H481.095L357.473 169.98L481.095 0H504.274C506.323 0 508.288 0.814023 509.737 2.263C511.186 3.71197 512 5.6772 512 7.72636V332.233C512 334.283 511.186 336.248 509.737 337.697C508.288 339.146 506.323 339.96 504.274 339.96Z" fill="#E0AC5E"/>
<path d="M481.095 339.96H7.72636C5.6772 339.96 3.71197 339.146 2.263 337.697C0.814025 336.248 0 334.283 0 332.233L0 7.72636C0 5.6772 0.814025 3.71197 2.263 2.263C3.71197 0.814023 5.6772 0 7.72636 0H481.095V30.9054L450.189 108.169L481.095 185.433V339.96Z" fill="#F5C476"/>
<path d="M326.567 30.9055H295.662V309.054H326.567C343.636 309.054 357.473 295.218 357.473 278.149V61.8109C357.473 44.7419 343.635 30.9055 326.567 30.9055Z" fill="#FC6723"/>
<path d="M326.567 278.149V61.8109C326.567 44.7419 312.731 30.9055 295.662 30.9055H61.8109C44.7418 30.9055 30.9054 44.7419 30.9054 61.8109V278.149C30.9054 295.218 44.7418 309.054 61.8109 309.054H295.662C312.73 309.054 326.567 295.218 326.567 278.149Z" fill="#FF802B"/>
<path d="M450.189 185.433L419.284 108.169L450.189 30.9055H481.095V185.433H450.189Z" fill="#9B3310"/>
<path d="M388.378 30.9055H450.189V185.433H388.378V30.9055Z" fill="#BA3D13"/>
<path d="M434.736 92.7162C443.271 92.7162 450.189 85.7978 450.189 77.2635C450.189 68.7292 443.271 61.8108 434.736 61.8108C426.202 61.8108 419.284 68.7292 419.284 77.2635C419.284 85.7978 426.202 92.7162 434.736 92.7162Z" fill="#FFECB5"/>
<path d="M434.736 154.527C443.271 154.527 450.189 147.609 450.189 139.075C450.189 130.54 443.271 123.622 434.736 123.622C426.202 123.622 419.284 130.54 419.284 139.075C419.284 147.609 426.202 154.527 434.736 154.527Z" fill="#FFECB5"/>
<path d="M109.199 173.843C109.199 220.781 147.251 258.833 194.189 258.833C241.128 258.833 279.179 220.781 279.179 173.843H248.274L232.821 204.748L217.368 173.843H171.01L155.557 204.748L140.105 173.843H109.199Z" fill="#9B3310"/>
<path d="M132.378 142.938C149.447 142.938 163.284 129.101 163.284 112.032C163.284 94.9635 149.447 81.1267 132.378 81.1267C115.31 81.1267 101.473 94.9635 101.473 112.032C101.473 129.101 115.31 142.938 132.378 142.938Z" fill="#9B3310"/>
<path d="M256 142.938C273.069 142.938 286.905 129.101 286.905 112.032C286.905 94.9635 273.069 81.1267 256 81.1267C238.931 81.1267 225.095 94.9635 225.095 112.032C225.095 129.101 238.931 142.938 256 142.938Z" fill="#9B3310"/>
<path d="M481.095 254.97H388.378C384.11 254.97 380.652 251.511 380.652 247.243C380.652 242.975 384.11 239.517 388.378 239.517H481.095C485.363 239.517 488.821 242.975 488.821 247.243C488.821 251.511 485.363 254.97 481.095 254.97ZM481.095 224.064H388.378C384.11 224.064 380.652 220.606 380.652 216.338C380.652 212.07 384.11 208.612 388.378 208.612H481.095C485.363 208.612 488.821 212.07 488.821 216.338C488.821 220.606 485.363 224.064 481.095 224.064ZM481.095 285.875H388.378C384.11 285.875 380.652 282.417 380.652 278.149C380.652 273.881 384.11 270.422 388.378 270.422H481.095C485.363 270.422 488.821 273.881 488.821 278.149C488.821 282.417 485.363 285.875 481.095 285.875ZM481.095 316.781H388.378C384.11 316.781 380.652 313.322 380.652 309.054C380.652 304.786 384.11 301.328 388.378 301.328H481.095C485.363 301.328 488.821 304.786 488.821 309.054C488.821 313.322 485.363 316.781 481.095 316.781Z" fill="#E0AC5E"/>
</svg>
