<svg width="20" height="20" viewBox="0 0 20 20" fill="none" xmlns="http://www.w3.org/2000/svg">
<path d="M18.8283 0.500145L18.8286 0.500141C19.0926 0.496417 19.2565 0.564452 19.3438 0.6518L19.3442 0.652131C19.4379 0.745711 19.5093 0.930596 19.4954 1.2207C19.4818 1.50308 19.3887 1.80318 19.2634 2.02218L19.2616 2.02542C19.1748 2.17964 18.9564 2.37566 18.6186 2.58202C18.2972 2.77837 17.9308 2.94681 17.6297 3.07018C17.4967 3.1247 17.3935 3.23386 17.3466 3.3698C17.2997 3.50574 17.3136 3.65528 17.3848 3.78024C17.5841 4.13038 17.6935 4.48988 17.7142 4.82009C17.7168 4.86288 17.718 4.90486 17.7177 4.94599L15.0546 2.28046C15.0954 2.28019 15.137 2.28134 15.1794 2.28397C15.5089 2.30436 15.8676 2.41313 16.2172 2.6116C16.3417 2.68227 16.4905 2.6962 16.626 2.64985C16.7614 2.6035 16.8705 2.50133 16.9256 2.3692C17.0521 2.06578 17.2206 1.69904 17.4167 1.3773C17.6227 1.03927 17.8178 0.821122 17.9726 0.734204L17.974 0.733436C18.2107 0.5995 18.5342 0.504156 18.8283 0.500145ZM14.7258 10.823L12.9347 9.03548C12.7394 8.84055 12.4231 8.84071 12.228 9.03583L11.6702 9.5936C11.5764 9.68743 11.5237 9.81471 11.5238 9.9474C11.5238 10.0801 11.5766 10.2073 11.6706 10.3011L13.5046 12.1315L13.291 12.3461L12.4427 11.4978C12.3489 11.4041 12.2217 11.3514 12.0891 11.3514C11.9565 11.3514 11.8293 11.4041 11.7356 11.4978L11.1778 12.0556C10.9825 12.2509 10.9825 12.5675 11.1778 12.7627L12.0261 13.611L11.8111 13.825L10.9655 12.9794C10.7702 12.7841 10.4536 12.7841 10.2584 12.9794L9.7006 13.5372C9.60683 13.6309 9.55415 13.7581 9.55415 13.8907C9.55415 14.0233 9.60683 14.1505 9.7006 14.2443L10.5462 15.0899L10.3322 15.3049L8.4991 13.4718C8.40534 13.378 8.27816 13.3254 8.14555 13.3254C8.01294 13.3254 7.88577 13.378 7.792 13.4718L7.23423 14.0296C7.03897 14.2248 7.03897 14.5414 7.23423 14.7367L9.06733 16.5698L8.85231 16.7838L8.0067 15.9382C7.91293 15.8444 7.78576 15.7917 7.65315 15.7917C7.52054 15.7917 7.39336 15.8444 7.2996 15.9382L6.74183 16.4959C6.54657 16.6912 6.54657 17.0078 6.74183 17.2031L7.5866 18.0478L7.37427 18.2602L6.5295 17.4154C6.33423 17.2201 6.01765 17.2201 5.82239 17.4154L5.26462 17.9732C5.06936 18.1684 5.06936 18.485 5.26462 18.6803L6.06438 19.48C6.01624 19.492 5.96004 19.5 5.89706 19.5C5.70599 19.5 5.57982 19.4299 5.54528 19.3944L5.54531 19.3943L5.54037 19.3894L0.608501 14.4566L0.608507 14.4566L0.606455 14.4546C0.569609 14.4182 0.5 14.2891 0.5 14.1042C0.5 13.9194 0.56961 13.7903 0.606455 13.7539L0.606461 13.7539L0.608489 13.7519L8.49912 5.86035L8.49983 5.85964C9.49149 4.86389 10.2119 4.67775 10.621 4.68632C10.9477 4.69607 11.1315 4.82923 11.1778 4.87557L15.1214 8.81914L15.1214 8.81915L15.1241 8.82179C15.171 8.86806 15.3247 9.07946 15.3092 9.46177C15.2967 9.771 15.171 10.2287 14.7258 10.823ZM16.2468 7.41913L12.5786 3.751L13.2914 3.03927L16.9592 6.70887L16.2468 7.41913Z" stroke="#282828" stroke-linejoin="round"/>
</svg>
