<svg width="19" height="16" viewBox="0 0 19 16" fill="none" xmlns="http://www.w3.org/2000/svg">
<path d="M17.258 2.11966C16.606 1.26301 15.685 0.650384 14.6429 0.380203C13.6008 0.110022 12.4981 0.197969 11.512 0.629917C10.6294 1.01079 9.84221 1.65295 9.20381 2.50512C8.5654 1.65086 7.77823 1.00871 6.89563 0.629917C5.90953 0.197969 4.80685 0.110022 3.76475 0.380203C2.72264 0.650384 1.8016 1.26301 1.14958 2.11966C0.462006 3.0206 0.0986328 4.14656 0.0986328 5.37544C0.0986328 7.14397 1.15333 9.08418 3.23315 11.1444C4.92792 12.8225 6.93064 14.1968 7.97325 14.8665C8.34062 15.1016 8.76765 15.2266 9.20381 15.2266C9.63997 15.2266 10.067 15.1016 10.4344 14.8665C11.4761 14.1968 13.4797 12.8225 15.1745 11.1444C17.2543 9.08502 18.309 7.14397 18.309 5.37544C18.309 4.14656 17.9456 3.0206 17.258 2.11966Z" fill="#DDDDDD"/>
</svg>
