<svg width="15" height="15" viewBox="0 0 15 15" fill="none" xmlns="http://www.w3.org/2000/svg">
<g clip-path="url(#clip0_11_87)">
<path d="M7.5 0C3.35801 0 0 3.35801 0 7.5C0 11.642 3.35801 15 7.5 15C11.642 15 15 11.642 15 7.5C15 3.35801 11.642 0 7.5 0ZM8.09824 11.1557C8.02864 11.2486 7.93834 11.3241 7.83449 11.376C7.73065 11.428 7.61612 11.4551 7.5 11.4551C7.38388 11.4551 7.26935 11.428 7.16551 11.376C7.06166 11.3241 6.97136 11.2486 6.90176 11.1557C6.02197 9.98027 4.48242 7.75312 4.48242 6.5625C4.48242 5.76219 4.80034 4.99466 5.36625 4.42875C5.93216 3.86284 6.69969 3.54492 7.5 3.54492C8.30031 3.54492 9.06784 3.86284 9.63375 4.42875C10.1997 4.99466 10.5176 5.76219 10.5176 6.5625C10.5176 7.75312 8.97803 9.98027 8.09824 11.1557Z" fill="#454650"/>
<path d="M7.49999 7.23447C8.06727 7.23447 8.52714 6.7746 8.52714 6.20732C8.52714 5.64005 8.06727 5.18018 7.49999 5.18018C6.93271 5.18018 6.47284 5.64005 6.47284 6.20732C6.47284 6.7746 6.93271 7.23447 7.49999 7.23447Z" fill="#454650"/>
</g>
<defs>
<clipPath id="clip0_11_87">
<rect width="15" height="15" fill="white"/>
</clipPath>
</defs>
</svg>
