<svg width="16" height="16" viewBox="0 0 16 16" fill="none" xmlns="http://www.w3.org/2000/svg">
<path fill-rule="evenodd" clip-rule="evenodd" d="M12 6.5C12 9.53757 9.53757 12 6.5 12C3.46243 12 1 9.53757 1 6.5C1 3.46243 3.46243 1 6.5 1C9.53757 1 12 3.46243 12 6.5ZM9.19098 12.4186C8.37099 12.792 7.45979 13 6.5 13C2.91015 13 0 10.0899 0 6.5C0 2.91015 2.91015 0 6.5 0C10.0899 0 13 2.91015 13 6.5C13 7.46456 12.7899 8.38006 12.413 9.20321C12.4251 9.21493 12.4388 9.22811 12.4538 9.2427C12.523 9.30964 12.6219 9.40616 12.742 9.52536C12.9819 9.76352 13.3074 10.0934 13.6489 10.4593C13.9896 10.8244 14.3505 11.23 14.6592 11.619C14.9606 11.9989 15.2393 12.3962 15.3876 12.739C15.7182 13.503 15.503 14.2806 15.0094 14.8133C14.5199 15.3415 13.7509 15.6441 12.9173 15.5308C12.4492 15.4672 11.9778 15.1889 11.5716 14.8835C11.1514 14.5675 10.7368 14.1724 10.3758 13.7944C10.0131 13.4146 9.69519 13.0422 9.46841 12.7655C9.35478 12.6269 9.26346 12.5115 9.20021 12.4304C9.19706 12.4264 9.19399 12.4224 9.19098 12.4186ZM10.0773 11.9279C10.1242 11.9868 10.1794 12.0554 10.2418 12.1316C10.458 12.3954 10.7588 12.7475 11.099 13.1037C11.4408 13.4616 11.8132 13.814 12.1726 14.0842C12.5461 14.3651 12.8469 14.512 13.0521 14.5399C13.5652 14.6097 14.0095 14.4211 14.2759 14.1336C14.5383 13.8504 14.6219 13.4875 14.4698 13.1361C14.3768 12.9211 14.1688 12.6098 13.8758 12.2406C13.5901 11.8805 13.249 11.4964 12.9178 11.1416C12.5875 10.7875 12.2713 10.4672 12.0375 10.2351C11.9908 10.1887 11.9475 10.146 11.908 10.1072C11.4255 10.8293 10.8022 11.4492 10.0773 11.9279Z" fill="#282828"/>
</svg>
