<svg width="439" height="512" viewBox="0 0 439 512" fill="none" xmlns="http://www.w3.org/2000/svg">
<path d="M270.408 196.246H167.592V19.3049L270.408 77.1749V196.246Z" fill="#FF2C5C"/>
<path d="M239.568 59.8162V196.246H270.408V77.1762L239.568 59.8162Z" fill="#E62753"/>
<path d="M286.862 256H151.142V179.645C151.142 177.437 152.936 175.645 155.142 175.645H282.862C285.068 175.645 286.862 177.437 286.862 179.645V256Z" fill="#EBE4E2"/>
<path d="M286.862 286.902H151.142V179.645C151.142 178.584 151.563 177.567 152.313 176.817C153.063 176.067 154.081 175.645 155.142 175.645H282.862C283.923 175.645 284.94 176.067 285.69 176.817C286.44 177.567 286.862 178.584 286.862 179.645V286.902Z" fill="#EBE4E2"/>
<path d="M286.862 286.902H256.014V175.645H282.861C283.922 175.645 284.939 176.067 285.689 176.817C286.439 177.567 286.861 178.584 286.861 179.645L286.862 286.902Z" fill="#D1C4C4"/>
<path d="M295.197 512H142.803C140.596 512 138.803 510.207 138.803 508V260C138.803 258.94 139.224 257.922 139.974 257.172C140.724 256.422 141.742 256 142.803 256H295.197C297.408 256 299.197 257.79 299.197 260V508C299.197 509.061 298.775 510.079 298.025 510.829C297.275 511.579 296.258 512 295.197 512Z" fill="#685C79"/>
<path d="M295.197 512H268.354V256H295.197C297.408 256 299.197 257.79 299.197 260V508C299.197 509.061 298.776 510.079 298.025 510.829C297.275 511.579 296.258 512 295.197 512Z" fill="#594F69"/>
<path d="M299.197 286.902H138.803V260C138.803 258.94 139.224 257.922 139.974 257.172C140.724 256.422 141.742 256 142.803 256H295.197C297.408 256 299.197 257.79 299.197 260V286.902Z" fill="#FFD659"/>
<path d="M299.197 286.902H268.354V256H295.197C297.408 256 299.197 257.79 299.197 260V286.902Z" fill="#FFBD54"/>
<path d="M265.752 88.3C253.962 101.496 223.475 93.879 197.654 71.285C171.83 48.688 160.459 19.672 172.248 6.47696C184.038 -6.72304 214.529 0.894962 240.35 23.492C266.17 46.086 277.545 75.101 265.752 88.3Z" fill="#D6244D"/>
<path d="M59.2714 145.914L69.5714 166.887C70.1163 167.998 70.9236 168.96 71.9235 169.69C72.9234 170.419 74.0858 170.894 75.3104 171.074L98.3404 174.437C104.59 175.347 107.087 183.067 102.564 187.492L85.8994 203.816C85.0132 204.684 84.3509 205.755 83.9693 206.935C83.5877 208.116 83.4982 209.371 83.7084 210.594L87.6424 233.641C88.7084 239.895 82.1774 244.664 76.5874 241.711L55.9814 230.828C54.8889 230.251 53.672 229.949 52.4364 229.949C51.2008 229.949 49.9839 230.251 48.8914 230.828L28.2914 241.711C22.7014 244.664 16.1654 239.895 17.2314 233.641L21.1694 210.594C21.3777 209.371 21.2873 208.116 20.9058 206.936C20.5243 205.756 19.863 204.686 18.9784 203.816L2.31039 187.496C-2.21361 183.066 0.282393 175.352 6.53239 174.437L29.5674 171.074C30.7913 170.894 31.9529 170.418 32.952 169.689C33.9512 168.96 34.7578 167.998 35.3024 166.887L45.6024 145.918C48.3994 140.227 56.4784 140.227 59.2714 145.914Z" fill="#FFD659"/>
<path d="M102.564 187.492C107.087 183.066 104.591 175.348 98.3415 174.438L75.3105 171.074C74.0859 170.894 72.9235 170.419 71.9236 169.69C70.9237 168.96 70.1164 167.998 69.5715 166.887L59.2715 145.914C56.4785 140.227 48.3995 140.227 45.6065 145.914L45.0645 147.02C50.5525 186.977 72.1465 195.906 70.8105 238.66L76.5835 241.71C82.1735 244.664 88.7085 239.895 87.6425 233.64L83.7085 210.594C83.4983 209.371 83.5878 208.116 83.9694 206.935C84.351 205.755 85.0133 204.685 85.8995 203.816L102.564 187.492Z" fill="#FFBD54"/>
<path d="M402.232 306.696L410.315 322.958C410.746 323.823 411.381 324.57 412.165 325.136C412.949 325.701 413.858 326.068 414.815 326.204L432.877 328.813C437.779 329.52 439.737 335.504 436.19 338.942L423.12 351.598C422.427 352.268 421.907 353.096 421.607 354.012C421.308 354.928 421.236 355.903 421.4 356.852L424.486 374.727C425.322 379.578 420.197 383.274 415.815 380.985L399.655 372.548C398.797 372.099 397.842 371.865 396.874 371.865C395.905 371.865 394.951 372.099 394.092 372.548L377.936 380.985C373.553 383.278 368.428 379.578 369.264 374.727L372.35 356.852C372.514 355.903 372.442 354.928 372.143 354.012C371.843 353.096 371.324 352.268 370.63 351.598L357.56 338.942C354.014 335.505 355.97 329.52 360.873 328.813L378.936 326.204C379.893 326.068 380.803 325.702 381.587 325.137C382.371 324.571 383.006 323.823 383.436 322.958L391.514 306.696C393.709 302.282 400.041 302.282 402.232 306.696Z" fill="#FFD659"/>
<path d="M423.115 351.599C422.423 352.268 421.904 353.097 421.605 354.012C421.305 354.928 421.234 355.903 421.397 356.853L424.482 374.728C425.326 379.579 420.193 383.278 415.814 380.989L413.479 379.763C412.338 348.126 397.541 336.31 390.365 309.013L391.518 306.693C393.709 302.283 400.041 302.283 402.232 306.693L410.315 322.958C410.746 323.823 411.381 324.571 412.166 325.137C412.95 325.702 413.861 326.068 414.818 326.204L432.881 328.81C437.775 329.52 439.741 335.509 436.193 338.939L423.115 351.599Z" fill="#FFBD54"/>
</svg>
