<svg width="21" height="20" viewBox="0 0 21 20" fill="none" xmlns="http://www.w3.org/2000/svg">
<mask id="path-1-inside-1_12_349" fill="white">
<path d="M19.5214 18.1825V17.8125C19.5206 17.6193 19.4601 17.4311 19.3482 17.2735C19.2364 17.116 19.0785 16.9969 18.8964 16.9325V9.31754C19.0785 9.25314 19.2364 9.13403 19.3482 8.97651C19.4601 8.81899 19.5206 8.63075 19.5214 8.43754V6.81755C19.7217 6.74756 19.8921 6.61135 20.0045 6.43142C20.1169 6.25149 20.1645 6.0386 20.1396 5.82791C20.1146 5.61723 20.0186 5.42136 19.8672 5.27266C19.7159 5.12396 19.5184 5.03132 19.3073 5.01006L10.2974 0.0391368C10.2512 0.01347 10.1992 0 10.1464 0C10.0936 0 10.0416 0.01347 9.99548 0.0391368L0.985513 5.01006C0.774426 5.03132 0.576908 5.12396 0.425586 5.27266C0.274264 5.42136 0.178193 5.61723 0.153242 5.82791C0.12829 6.0386 0.175952 6.25149 0.288353 6.43142C0.400755 6.61135 0.571171 6.74756 0.771452 6.81755V8.43754C0.772252 8.63075 0.832728 8.81899 0.944603 8.97651C1.05648 9.13403 1.21429 9.25314 1.39645 9.31754V16.9325C1.21429 16.9969 1.05648 17.116 0.944603 17.2735C0.832728 17.4311 0.772252 17.6193 0.771452 17.8125V18.1825C0.589293 18.2469 0.431481 18.366 0.319606 18.5235C0.20773 18.6811 0.147255 18.8693 0.146454 19.0625L0.146454 19.6875C0.146454 19.7704 0.179378 19.8499 0.237983 19.9085C0.296588 19.9671 0.376073 20 0.458953 20H19.8339C19.9168 20 19.9962 19.9671 20.0549 19.9085C20.1135 19.8499 20.1464 19.7704 20.1464 19.6875V19.0625C20.1456 18.8693 20.0851 18.6811 19.9732 18.5235C19.8614 18.366 19.7035 18.2469 19.5214 18.1825ZM15.7714 18.125V17.8125C15.7706 17.6193 15.7101 17.4311 15.5982 17.2735C15.4864 17.116 15.3286 16.9969 15.1464 16.9325V9.31754C15.3286 9.25314 15.4864 9.13403 15.5982 8.97651C15.7101 8.81899 15.7706 8.63075 15.7714 8.43754V8.12504H16.3964V8.43754C16.3972 8.63075 16.4577 8.81899 16.5695 8.97651C16.6814 9.13403 16.8392 9.25314 17.0214 9.31754V10.3125C17.0214 10.3954 17.0543 10.4749 17.1129 10.5335C17.1715 10.5921 17.251 10.625 17.3339 10.625C17.4168 10.625 17.4963 10.5921 17.5549 10.5335C17.6135 10.4749 17.6464 10.3954 17.6464 10.3125V9.37504H18.2714V16.875H17.6464V11.5625C17.6464 11.4797 17.6135 11.4002 17.5549 11.3416C17.4963 11.283 17.4168 11.25 17.3339 11.25C17.251 11.25 17.1715 11.283 17.1129 11.3416C17.0543 11.4002 17.0214 11.4797 17.0214 11.5625V16.9325C16.8392 16.9969 16.6814 17.116 16.5695 17.2735C16.4577 17.4311 16.3972 17.6193 16.3964 17.8125V18.125H15.7714ZM12.3339 18.125V11.8175C12.5422 11.7441 12.7179 11.5994 12.8297 11.4089C12.9416 11.2185 12.9824 10.9945 12.945 10.7769C12.9075 10.5592 12.7943 10.3617 12.6252 10.2196C12.4562 10.0774 12.2423 9.99962 12.0214 10H8.27142C8.05054 9.99962 7.83664 10.0774 7.6676 10.2196C7.49856 10.3617 7.3853 10.5592 7.34787 10.7769C7.31044 10.9945 7.35126 11.2185 7.4631 11.4089C7.57494 11.5994 7.75059 11.7441 7.95892 11.8175V18.125H7.64643V17.8125C7.64563 17.6193 7.58515 17.4311 7.47327 17.2735C7.3614 17.116 7.20359 16.9969 7.02143 16.9325V9.31754C7.20359 9.25314 7.3614 9.13403 7.47327 8.97651C7.58515 8.81899 7.64563 8.63075 7.64643 8.43754V8.12504H12.6464V8.43754C12.6472 8.63075 12.7077 8.81899 12.8196 8.97651C12.9314 9.13403 13.0892 9.25314 13.2714 9.31754V16.9325C13.0892 16.9969 12.9314 17.116 12.8196 17.2735C12.7077 17.4311 12.6472 17.6193 12.6464 17.8125V18.125H12.3339ZM8.58392 11.875H10.1464C10.2293 11.875 10.3088 11.8421 10.3674 11.7835C10.426 11.7249 10.4589 11.6454 10.4589 11.5625C10.4589 11.4797 10.426 11.4002 10.3674 11.3416C10.3088 11.283 10.2293 11.25 10.1464 11.25H8.27142C8.18854 11.25 8.10906 11.2171 8.05045 11.1585C7.99185 11.0999 7.95892 11.0204 7.95892 10.9375C7.95892 10.8547 7.99185 10.7752 8.05045 10.7166C8.10906 10.658 8.18854 10.625 8.27142 10.625H12.0214C12.1043 10.625 12.1838 10.658 12.2424 10.7166C12.301 10.7752 12.3339 10.8547 12.3339 10.9375C12.3339 11.0204 12.301 11.0999 12.2424 11.1585C12.1838 11.2171 12.1043 11.25 12.0214 11.25H11.3964C11.3135 11.25 11.234 11.283 11.1754 11.3416C11.1168 11.4002 11.0839 11.4797 11.0839 11.5625C11.0839 11.6454 11.1168 11.7249 11.1754 11.7835C11.234 11.8421 11.3135 11.875 11.3964 11.875H11.7089V18.125H8.58392V11.875ZM3.89644 18.125V17.8125C3.89564 17.6193 3.83516 17.4311 3.72329 17.2735C3.61141 17.116 3.4536 16.9969 3.27144 16.9325V15.9375C3.27144 15.8546 3.23852 15.7751 3.17991 15.7165C3.12131 15.6579 3.04182 15.625 2.95894 15.625C2.87606 15.625 2.79658 15.6579 2.73797 15.7165C2.67937 15.7751 2.64644 15.8546 2.64644 15.9375V16.875H2.02145V9.37504H2.64644V14.6875C2.64644 14.7704 2.67937 14.8499 2.73797 14.9085C2.79658 14.9671 2.87606 15 2.95894 15C3.04182 15 3.12131 14.9671 3.17991 14.9085C3.23852 14.8499 3.27144 14.7704 3.27144 14.6875V9.31754C3.4536 9.25314 3.61141 9.13403 3.72329 8.97651C3.83516 8.81899 3.89564 8.63075 3.89644 8.43754V8.12504H4.52144V8.43754C4.52224 8.63075 4.58271 8.81899 4.69459 8.97651C4.80647 9.13403 4.96428 9.25314 5.14644 9.31754V16.9325C4.96428 16.9969 4.80647 17.116 4.69459 17.2735C4.58271 17.4311 4.52224 17.6193 4.52144 17.8125V18.125H3.89644ZM1.39645 8.43754V8.12504H3.27144V8.43754C3.27144 8.52042 3.23852 8.59991 3.17991 8.65851C3.12131 8.71712 3.04182 8.75004 2.95894 8.75004H1.70895C1.62607 8.75004 1.54658 8.71712 1.48798 8.65851C1.42937 8.59991 1.39645 8.52042 1.39645 8.43754ZM5.77143 9.37504H6.39643V16.875H5.77143V9.37504ZM6.70893 8.75004H5.45893C5.37605 8.75004 5.29657 8.71712 5.23796 8.65851C5.17936 8.59991 5.14644 8.52042 5.14644 8.43754V8.12504H7.02143V8.43754C7.02143 8.52042 6.9885 8.59991 6.9299 8.65851C6.87129 8.71712 6.79181 8.75004 6.70893 8.75004ZM5.14644 17.8125C5.14644 17.7296 5.17936 17.6501 5.23796 17.5915C5.29657 17.5329 5.37605 17.5 5.45893 17.5H6.70893C6.79181 17.5 6.87129 17.5329 6.9299 17.5915C6.9885 17.6501 7.02143 17.7296 7.02143 17.8125V18.125H5.14644V17.8125ZM13.8964 9.37504H14.5214V16.875H13.8964V9.37504ZM14.8339 8.75004H13.5839C13.501 8.75004 13.4215 8.71712 13.3629 8.65851C13.3043 8.59991 13.2714 8.52042 13.2714 8.43754V8.12504H15.1464V8.43754C15.1464 8.52042 15.1135 8.59991 15.0549 8.65851C14.9963 8.71712 14.9168 8.75004 14.8339 8.75004ZM13.2714 17.8125C13.2714 17.7296 13.3043 17.6501 13.3629 17.5915C13.4215 17.5329 13.501 17.5 13.5839 17.5H14.8339C14.9168 17.5 14.9963 17.5329 15.0549 17.5915C15.1135 17.6501 15.1464 17.7296 15.1464 17.8125V18.125H13.2714V17.8125ZM17.0214 17.8125C17.0214 17.7296 17.0543 17.6501 17.1129 17.5915C17.1715 17.5329 17.251 17.5 17.3339 17.5H18.5839C18.6668 17.5 18.7463 17.5329 18.8049 17.5915C18.8635 17.6501 18.8964 17.7296 18.8964 17.8125V18.125H17.0214V17.8125ZM18.8964 8.43754C18.8964 8.52042 18.8635 8.59991 18.8049 8.65851C18.7463 8.71712 18.6668 8.75004 18.5839 8.75004H17.3339C17.251 8.75004 17.1715 8.71712 17.1129 8.65851C17.0543 8.59991 17.0214 8.52042 17.0214 8.43754V8.12504H18.8964V8.43754ZM10.1464 0.669447L17.9958 5.00006H2.29707L10.1464 0.669447ZM1.08395 5.62505H19.2089C19.2918 5.62505 19.3712 5.65798 19.4299 5.71658C19.4885 5.77519 19.5214 5.85467 19.5214 5.93755C19.5214 6.02043 19.4885 6.09992 19.4299 6.15852C19.3712 6.21713 19.2918 6.25005 19.2089 6.25005H16.7089C16.626 6.25005 16.5465 6.28297 16.4879 6.34158C16.4293 6.40018 16.3964 6.47967 16.3964 6.56255C16.3964 6.64543 16.4293 6.72492 16.4879 6.78352C16.5465 6.84213 16.626 6.87505 16.7089 6.87505H18.8964V7.50005H1.39645V6.87505H15.4589C15.5418 6.87505 15.6213 6.84213 15.6799 6.78352C15.7385 6.72492 15.7714 6.64543 15.7714 6.56255C15.7714 6.47967 15.7385 6.40018 15.6799 6.34158C15.6213 6.28297 15.5418 6.25005 15.4589 6.25005H1.08395C1.00107 6.25005 0.921585 6.21713 0.86298 6.15852C0.804375 6.09992 0.771452 6.02043 0.771452 5.93755C0.771452 5.85467 0.804375 5.77519 0.86298 5.71658C0.921585 5.65798 1.00107 5.62505 1.08395 5.62505ZM1.39645 17.8125C1.39645 17.7296 1.42937 17.6501 1.48798 17.5915C1.54658 17.5329 1.62607 17.5 1.70895 17.5H2.95894C3.04182 17.5 3.12131 17.5329 3.17991 17.5915C3.23852 17.6501 3.27144 17.7296 3.27144 17.8125V18.125H1.39645V17.8125ZM19.5214 19.375H0.771452V19.0625C0.771452 18.9796 0.804375 18.9001 0.86298 18.8415C0.921585 18.7829 1.00107 18.75 1.08395 18.75H19.2089C19.2918 18.75 19.3712 18.7829 19.4299 18.8415C19.4885 18.9001 19.5214 18.9796 19.5214 19.0625V19.375Z"/>
</mask>
<path d="M19.5214 18.1825V17.8125C19.5206 17.6193 19.4601 17.4311 19.3482 17.2735C19.2364 17.116 19.0785 16.9969 18.8964 16.9325V9.31754C19.0785 9.25314 19.2364 9.13403 19.3482 8.97651C19.4601 8.81899 19.5206 8.63075 19.5214 8.43754V6.81755C19.7217 6.74756 19.8921 6.61135 20.0045 6.43142C20.1169 6.25149 20.1645 6.0386 20.1396 5.82791C20.1146 5.61723 20.0186 5.42136 19.8672 5.27266C19.7159 5.12396 19.5184 5.03132 19.3073 5.01006L10.2974 0.0391368C10.2512 0.01347 10.1992 0 10.1464 0C10.0936 0 10.0416 0.01347 9.99548 0.0391368L0.985513 5.01006C0.774426 5.03132 0.576908 5.12396 0.425586 5.27266C0.274264 5.42136 0.178193 5.61723 0.153242 5.82791C0.12829 6.0386 0.175952 6.25149 0.288353 6.43142C0.400755 6.61135 0.571171 6.74756 0.771452 6.81755V8.43754C0.772252 8.63075 0.832728 8.81899 0.944603 8.97651C1.05648 9.13403 1.21429 9.25314 1.39645 9.31754V16.9325C1.21429 16.9969 1.05648 17.116 0.944603 17.2735C0.832728 17.4311 0.772252 17.6193 0.771452 17.8125V18.1825C0.589293 18.2469 0.431481 18.366 0.319606 18.5235C0.20773 18.6811 0.147255 18.8693 0.146454 19.0625L0.146454 19.6875C0.146454 19.7704 0.179378 19.8499 0.237983 19.9085C0.296588 19.9671 0.376073 20 0.458953 20H19.8339C19.9168 20 19.9962 19.9671 20.0549 19.9085C20.1135 19.8499 20.1464 19.7704 20.1464 19.6875V19.0625C20.1456 18.8693 20.0851 18.6811 19.9732 18.5235C19.8614 18.366 19.7035 18.2469 19.5214 18.1825ZM15.7714 18.125V17.8125C15.7706 17.6193 15.7101 17.4311 15.5982 17.2735C15.4864 17.116 15.3286 16.9969 15.1464 16.9325V9.31754C15.3286 9.25314 15.4864 9.13403 15.5982 8.97651C15.7101 8.81899 15.7706 8.63075 15.7714 8.43754V8.12504H16.3964V8.43754C16.3972 8.63075 16.4577 8.81899 16.5695 8.97651C16.6814 9.13403 16.8392 9.25314 17.0214 9.31754V10.3125C17.0214 10.3954 17.0543 10.4749 17.1129 10.5335C17.1715 10.5921 17.251 10.625 17.3339 10.625C17.4168 10.625 17.4963 10.5921 17.5549 10.5335C17.6135 10.4749 17.6464 10.3954 17.6464 10.3125V9.37504H18.2714V16.875H17.6464V11.5625C17.6464 11.4797 17.6135 11.4002 17.5549 11.3416C17.4963 11.283 17.4168 11.25 17.3339 11.25C17.251 11.25 17.1715 11.283 17.1129 11.3416C17.0543 11.4002 17.0214 11.4797 17.0214 11.5625V16.9325C16.8392 16.9969 16.6814 17.116 16.5695 17.2735C16.4577 17.4311 16.3972 17.6193 16.3964 17.8125V18.125H15.7714ZM12.3339 18.125V11.8175C12.5422 11.7441 12.7179 11.5994 12.8297 11.4089C12.9416 11.2185 12.9824 10.9945 12.945 10.7769C12.9075 10.5592 12.7943 10.3617 12.6252 10.2196C12.4562 10.0774 12.2423 9.99962 12.0214 10H8.27142C8.05054 9.99962 7.83664 10.0774 7.6676 10.2196C7.49856 10.3617 7.3853 10.5592 7.34787 10.7769C7.31044 10.9945 7.35126 11.2185 7.4631 11.4089C7.57494 11.5994 7.75059 11.7441 7.95892 11.8175V18.125H7.64643V17.8125C7.64563 17.6193 7.58515 17.4311 7.47327 17.2735C7.3614 17.116 7.20359 16.9969 7.02143 16.9325V9.31754C7.20359 9.25314 7.3614 9.13403 7.47327 8.97651C7.58515 8.81899 7.64563 8.63075 7.64643 8.43754V8.12504H12.6464V8.43754C12.6472 8.63075 12.7077 8.81899 12.8196 8.97651C12.9314 9.13403 13.0892 9.25314 13.2714 9.31754V16.9325C13.0892 16.9969 12.9314 17.116 12.8196 17.2735C12.7077 17.4311 12.6472 17.6193 12.6464 17.8125V18.125H12.3339ZM8.58392 11.875H10.1464C10.2293 11.875 10.3088 11.8421 10.3674 11.7835C10.426 11.7249 10.4589 11.6454 10.4589 11.5625C10.4589 11.4797 10.426 11.4002 10.3674 11.3416C10.3088 11.283 10.2293 11.25 10.1464 11.25H8.27142C8.18854 11.25 8.10906 11.2171 8.05045 11.1585C7.99185 11.0999 7.95892 11.0204 7.95892 10.9375C7.95892 10.8547 7.99185 10.7752 8.05045 10.7166C8.10906 10.658 8.18854 10.625 8.27142 10.625H12.0214C12.1043 10.625 12.1838 10.658 12.2424 10.7166C12.301 10.7752 12.3339 10.8547 12.3339 10.9375C12.3339 11.0204 12.301 11.0999 12.2424 11.1585C12.1838 11.2171 12.1043 11.25 12.0214 11.25H11.3964C11.3135 11.25 11.234 11.283 11.1754 11.3416C11.1168 11.4002 11.0839 11.4797 11.0839 11.5625C11.0839 11.6454 11.1168 11.7249 11.1754 11.7835C11.234 11.8421 11.3135 11.875 11.3964 11.875H11.7089V18.125H8.58392V11.875ZM3.89644 18.125V17.8125C3.89564 17.6193 3.83516 17.4311 3.72329 17.2735C3.61141 17.116 3.4536 16.9969 3.27144 16.9325V15.9375C3.27144 15.8546 3.23852 15.7751 3.17991 15.7165C3.12131 15.6579 3.04182 15.625 2.95894 15.625C2.87606 15.625 2.79658 15.6579 2.73797 15.7165C2.67937 15.7751 2.64644 15.8546 2.64644 15.9375V16.875H2.02145V9.37504H2.64644V14.6875C2.64644 14.7704 2.67937 14.8499 2.73797 14.9085C2.79658 14.9671 2.87606 15 2.95894 15C3.04182 15 3.12131 14.9671 3.17991 14.9085C3.23852 14.8499 3.27144 14.7704 3.27144 14.6875V9.31754C3.4536 9.25314 3.61141 9.13403 3.72329 8.97651C3.83516 8.81899 3.89564 8.63075 3.89644 8.43754V8.12504H4.52144V8.43754C4.52224 8.63075 4.58271 8.81899 4.69459 8.97651C4.80647 9.13403 4.96428 9.25314 5.14644 9.31754V16.9325C4.96428 16.9969 4.80647 17.116 4.69459 17.2735C4.58271 17.4311 4.52224 17.6193 4.52144 17.8125V18.125H3.89644ZM1.39645 8.43754V8.12504H3.27144V8.43754C3.27144 8.52042 3.23852 8.59991 3.17991 8.65851C3.12131 8.71712 3.04182 8.75004 2.95894 8.75004H1.70895C1.62607 8.75004 1.54658 8.71712 1.48798 8.65851C1.42937 8.59991 1.39645 8.52042 1.39645 8.43754ZM5.77143 9.37504H6.39643V16.875H5.77143V9.37504ZM6.70893 8.75004H5.45893C5.37605 8.75004 5.29657 8.71712 5.23796 8.65851C5.17936 8.59991 5.14644 8.52042 5.14644 8.43754V8.12504H7.02143V8.43754C7.02143 8.52042 6.9885 8.59991 6.9299 8.65851C6.87129 8.71712 6.79181 8.75004 6.70893 8.75004ZM5.14644 17.8125C5.14644 17.7296 5.17936 17.6501 5.23796 17.5915C5.29657 17.5329 5.37605 17.5 5.45893 17.5H6.70893C6.79181 17.5 6.87129 17.5329 6.9299 17.5915C6.9885 17.6501 7.02143 17.7296 7.02143 17.8125V18.125H5.14644V17.8125ZM13.8964 9.37504H14.5214V16.875H13.8964V9.37504ZM14.8339 8.75004H13.5839C13.501 8.75004 13.4215 8.71712 13.3629 8.65851C13.3043 8.59991 13.2714 8.52042 13.2714 8.43754V8.12504H15.1464V8.43754C15.1464 8.52042 15.1135 8.59991 15.0549 8.65851C14.9963 8.71712 14.9168 8.75004 14.8339 8.75004ZM13.2714 17.8125C13.2714 17.7296 13.3043 17.6501 13.3629 17.5915C13.4215 17.5329 13.501 17.5 13.5839 17.5H14.8339C14.9168 17.5 14.9963 17.5329 15.0549 17.5915C15.1135 17.6501 15.1464 17.7296 15.1464 17.8125V18.125H13.2714V17.8125ZM17.0214 17.8125C17.0214 17.7296 17.0543 17.6501 17.1129 17.5915C17.1715 17.5329 17.251 17.5 17.3339 17.5H18.5839C18.6668 17.5 18.7463 17.5329 18.8049 17.5915C18.8635 17.6501 18.8964 17.7296 18.8964 17.8125V18.125H17.0214V17.8125ZM18.8964 8.43754C18.8964 8.52042 18.8635 8.59991 18.8049 8.65851C18.7463 8.71712 18.6668 8.75004 18.5839 8.75004H17.3339C17.251 8.75004 17.1715 8.71712 17.1129 8.65851C17.0543 8.59991 17.0214 8.52042 17.0214 8.43754V8.12504H18.8964V8.43754ZM10.1464 0.669447L17.9958 5.00006H2.29707L10.1464 0.669447ZM1.08395 5.62505H19.2089C19.2918 5.62505 19.3712 5.65798 19.4299 5.71658C19.4885 5.77519 19.5214 5.85467 19.5214 5.93755C19.5214 6.02043 19.4885 6.09992 19.4299 6.15852C19.3712 6.21713 19.2918 6.25005 19.2089 6.25005H16.7089C16.626 6.25005 16.5465 6.28297 16.4879 6.34158C16.4293 6.40018 16.3964 6.47967 16.3964 6.56255C16.3964 6.64543 16.4293 6.72492 16.4879 6.78352C16.5465 6.84213 16.626 6.87505 16.7089 6.87505H18.8964V7.50005H1.39645V6.87505H15.4589C15.5418 6.87505 15.6213 6.84213 15.6799 6.78352C15.7385 6.72492 15.7714 6.64543 15.7714 6.56255C15.7714 6.47967 15.7385 6.40018 15.6799 6.34158C15.6213 6.28297 15.5418 6.25005 15.4589 6.25005H1.08395C1.00107 6.25005 0.921585 6.21713 0.86298 6.15852C0.804375 6.09992 0.771452 6.02043 0.771452 5.93755C0.771452 5.85467 0.804375 5.77519 0.86298 5.71658C0.921585 5.65798 1.00107 5.62505 1.08395 5.62505ZM1.39645 17.8125C1.39645 17.7296 1.42937 17.6501 1.48798 17.5915C1.54658 17.5329 1.62607 17.5 1.70895 17.5H2.95894C3.04182 17.5 3.12131 17.5329 3.17991 17.5915C3.23852 17.6501 3.27144 17.7296 3.27144 17.8125V18.125H1.39645V17.8125ZM19.5214 19.375H0.771452V19.0625C0.771452 18.9796 0.804375 18.9001 0.86298 18.8415C0.921585 18.7829 1.00107 18.75 1.08395 18.75H19.2089C19.2918 18.75 19.3712 18.7829 19.4299 18.8415C19.4885 18.9001 19.5214 18.9796 19.5214 19.0625V19.375Z" stroke="#282828" stroke-width="2" mask="url(#path-1-inside-1_12_349)"/>
<mask id="path-2-inside-2_12_349" fill="white">
<path d="M5.69328 4.20754C5.71232 4.24391 5.73833 4.27616 5.76984 4.30247C5.80134 4.32878 5.83772 4.34862 5.8769 4.36087C5.91607 4.37312 5.95728 4.37752 5.99816 4.37384C6.03904 4.37016 6.07879 4.35846 6.11515 4.33942L10.1464 2.22786L14.1776 4.33942C14.2511 4.37787 14.3368 4.38558 14.4159 4.36085C14.495 4.33612 14.561 4.28097 14.5995 4.20754C14.638 4.13411 14.6457 4.04841 14.6209 3.96929C14.5962 3.89018 14.5411 3.82412 14.4676 3.78567L10.2914 1.59818C10.2466 1.57474 10.1969 1.5625 10.1464 1.5625C10.0959 1.5625 10.0461 1.57474 10.0014 1.59818L5.82515 3.78567C5.78879 3.80471 5.75653 3.83072 5.73022 3.86223C5.70392 3.89373 5.68407 3.93011 5.67183 3.96929C5.65958 4.00846 5.65517 4.04967 5.65885 4.09055C5.66253 4.13143 5.67423 4.17118 5.69328 4.20754Z"/>
</mask>
<path d="M5.69328 4.20754L6.57922 3.74374L6.57908 3.74348L5.69328 4.20754ZM6.11515 4.33942L5.65115 3.45358L5.65109 3.45361L6.11515 4.33942ZM10.1464 2.22786L10.6104 1.34203L10.1464 1.09898L9.68239 1.34203L10.1464 2.22786ZM14.1776 4.33942L13.7136 5.22525L13.7137 5.22529L14.1776 4.33942ZM14.4676 3.78567L14.0036 4.67151L14.0037 4.67154L14.4676 3.78567ZM10.2914 1.59818L9.82739 2.48401L9.82739 2.48401L10.2914 1.59818ZM10.1464 1.5625V0.5625V1.5625ZM10.0014 1.59818L10.4654 2.48401L10.4654 2.48401L10.0014 1.59818ZM5.82515 3.78567L6.28896 4.67161L6.28915 4.67151L5.82515 3.78567ZM4.80734 4.67134C4.8873 4.82407 4.99656 4.95955 5.12888 5.07005L6.41079 3.53489C6.4801 3.59277 6.53734 3.66374 6.57922 3.74374L4.80734 4.67134ZM5.12888 5.07005C5.26121 5.18055 5.414 5.26389 5.57854 5.31533L6.17525 3.40642C6.26144 3.43336 6.34148 3.47701 6.41079 3.53489L5.12888 5.07005ZM5.57854 5.31533C5.74308 5.36676 5.91615 5.38527 6.08784 5.36981L5.90848 3.37787C5.99841 3.36977 6.08907 3.37947 6.17525 3.40642L5.57854 5.31533ZM6.08784 5.36981C6.25954 5.35435 6.42651 5.30522 6.57921 5.22522L5.65109 3.45361C5.73108 3.41171 5.81854 3.38597 5.90848 3.37787L6.08784 5.36981ZM6.57915 5.22525L10.6104 3.1137L9.68239 1.34203L5.65115 3.45358L6.57915 5.22525ZM9.68239 3.1137L13.7136 5.22525L14.6416 3.45358L10.6104 1.34203L9.68239 3.1137ZM13.7137 5.22529C14.0221 5.38678 14.382 5.41917 14.7142 5.31531L14.1175 3.4064C14.2915 3.352 14.48 3.36896 14.6416 3.45355L13.7137 5.22529ZM14.7142 5.31531C15.0465 5.21145 15.3239 4.97985 15.4854 4.67147L13.7136 3.74361C13.7982 3.5821 13.9435 3.4608 14.1175 3.4064L14.7142 5.31531ZM15.4854 4.67147C15.6469 4.3631 15.6792 4.0032 15.5754 3.67094L13.6665 4.26765C13.6121 4.09362 13.629 3.90512 13.7136 3.74361L15.4854 4.67147ZM15.5754 3.67094C15.4715 3.33868 15.2399 3.06129 14.9316 2.8998L14.0037 4.67154C13.8422 4.58696 13.7209 4.44167 13.6665 4.26765L15.5754 3.67094ZM14.9316 2.89983L10.7554 0.71234L9.82739 2.48401L14.0036 4.67151L14.9316 2.89983ZM10.7554 0.712341C10.5675 0.613915 10.3585 0.5625 10.1464 0.5625V2.5625C10.0353 2.5625 9.92582 2.53557 9.82739 2.48401L10.7554 0.712341ZM10.1464 0.5625C9.93426 0.5625 9.7253 0.613915 9.53739 0.712341L10.4654 2.48401C10.367 2.53557 10.2575 2.5625 10.1464 2.5625V0.5625ZM9.53739 0.71234L5.36116 2.89983L6.28915 4.67151L10.4654 2.48401L9.53739 0.71234ZM5.36135 2.89973C5.20862 2.97969 5.07314 3.08895 4.96265 3.22127L6.4978 4.50318C6.43992 4.57249 6.36896 4.62973 6.28896 4.67161L5.36135 2.89973ZM4.96265 3.22127C4.85215 3.35359 4.76881 3.50639 4.71737 3.67093L6.62628 4.26764C6.59934 4.35383 6.55568 4.43387 6.4978 4.50318L4.96265 3.22127ZM4.71737 3.67093C4.66594 3.83546 4.64742 4.00853 4.66288 4.18023L6.65482 4.00087C6.66292 4.09081 6.65322 4.18146 6.62628 4.26764L4.71737 3.67093ZM4.66288 4.18023C4.67834 4.35193 4.72748 4.5189 4.80748 4.6716L6.57908 3.74348C6.62099 3.82346 6.64672 3.91092 6.65482 4.00087L4.66288 4.18023Z" fill="#282828" mask="url(#path-2-inside-2_12_349)"/>
</svg>
