<svg width="30" height="30" viewBox="0 0 30 30" fill="none" xmlns="http://www.w3.org/2000/svg">
<circle cx="15" cy="15" r="15" fill="black" fill-opacity="0.5"/>
<path d="M15 18.575C14.7167 18.575 14.479 18.479 14.287 18.287C14.095 18.095 13.9993 17.8577 14 17.575V10.425L12.125 12.3C11.925 12.5 11.6917 12.6 11.425 12.6C11.1583 12.6 10.9167 12.4917 10.7 12.275C10.5 12.075 10.4043 11.8377 10.413 11.563C10.4217 11.2883 10.5173 11.059 10.7 10.875L14.3 7.275C14.4 7.175 14.5083 7.10433 14.625 7.063C14.7417 7.02167 14.8667 7.00067 15 7C15.1333 7 15.2583 7.021 15.375 7.063C15.4917 7.105 15.6 7.17567 15.7 7.275L19.3 10.875C19.5 11.075 19.596 11.3127 19.588 11.588C19.58 11.8633 19.484 12.0923 19.3 12.275C19.1 12.475 18.8623 12.5793 18.587 12.588C18.3117 12.5967 18.0743 12.5007 17.875 12.3L16 10.425V17.575C16 17.8583 15.904 18.096 15.712 18.288C15.52 18.48 15.2827 18.5757 15 18.575ZM9 22.575C8.45 22.575 7.979 22.379 7.587 21.987C7.195 21.595 6.99934 21.1243 7 20.575V14.575C7 14.2917 7.096 14.054 7.288 13.862C7.48 13.67 7.71733 13.5743 8 13.575C8.28333 13.575 8.521 13.671 8.713 13.863C8.905 14.055 9.00067 14.2923 9 14.575V20.575H21V14.575C21 14.2917 21.096 14.054 21.288 13.862C21.48 13.67 21.7173 13.5743 22 13.575C22.2833 13.575 22.521 13.671 22.713 13.863C22.905 14.055 23.0007 14.2923 23 14.575V20.575C23 21.125 22.804 21.596 22.412 21.988C22.02 22.38 21.5493 22.5757 21 22.575H9Z" fill="white"/>
</svg>
