<svg width="15" height="20" viewBox="0 0 15 20" fill="none" xmlns="http://www.w3.org/2000/svg">
<path d="M7.11792 2.54754C7.19562 2.54754 7.27014 2.51668 7.32508 2.46174C7.38002 2.4068 7.41089 2.33228 7.41089 2.25458V0.292965C7.41089 0.13117 7.27976 0 7.11792 0C6.95609 0 6.82496 0.13117 6.82496 0.292965V2.25458C6.82496 2.33228 6.85582 2.4068 6.91077 2.46174C6.96571 2.51668 7.04022 2.54754 7.11792 2.54754ZM3.96843 2.95199C3.9959 2.98335 4.02977 3.00846 4.06775 3.02564C4.10572 3.04282 4.14694 3.05167 4.18863 3.0516C4.24495 3.05157 4.30007 3.03531 4.34738 3.00477C4.3947 2.97422 4.43221 2.93068 4.45542 2.87937C4.47863 2.82805 4.48656 2.77113 4.47825 2.71543C4.46994 2.65972 4.44576 2.60759 4.40858 2.56528L3.11227 1.08987C3.06075 1.03239 2.98862 0.997561 2.91156 0.992965C2.8345 0.988369 2.75874 1.01437 2.70075 1.06532C2.64276 1.11628 2.60722 1.18806 2.60186 1.26507C2.5965 1.34207 2.62175 1.41809 2.67212 1.47658L3.96843 2.95199ZM3.64215 15.5533L3.47817 14.5363C3.47205 14.4983 3.45852 14.4619 3.43832 14.4291C3.41813 14.3964 3.39168 14.3679 3.36049 14.3454C3.32929 14.3229 3.29397 14.3067 3.25652 14.2978C3.21908 14.289 3.18026 14.2876 3.14227 14.2937C3.06557 14.3061 2.99692 14.3484 2.95143 14.4114C2.90594 14.4744 2.88733 14.5529 2.8997 14.6296L3.06227 15.6378C3.14048 16.4297 2.85454 16.7789 2.49291 17.2206L2.47326 17.2446L0.0918048 19.4938C0.0353193 19.5471 0.00233933 19.6207 0.000119711 19.6984C-0.00209991 19.776 0.0266226 19.8514 0.0799689 19.9079C0.107321 19.9369 0.140331 19.9601 0.176965 19.9759C0.213599 19.9917 0.25308 19.9998 0.292974 19.9997C0.367772 19.9998 0.43975 19.9712 0.494065 19.9198L2.88915 17.6577C2.89829 17.6491 2.90688 17.6399 2.91485 17.6301L2.94618 17.5918C3.32293 17.1317 3.74992 16.6102 3.64434 15.5703C3.64382 15.5646 3.64309 15.5589 3.64215 15.5533Z" fill="#282828"/>
<path d="M11.1483 12.6992C11.1474 12.7036 11.1466 12.7081 11.1459 12.7125L11.0455 13.3323C11.0331 13.409 11.0517 13.4875 11.0971 13.5505C11.1426 13.6135 11.2112 13.6559 11.2879 13.6683C11.3646 13.6808 11.4431 13.6622 11.5061 13.6168C11.5691 13.5713 11.6115 13.5027 11.6239 13.426L11.7233 12.8127C11.9376 11.7775 11.4964 10.8705 11.1418 10.1415C11.0378 9.92751 10.9395 9.72548 10.8741 9.55037L9.10591 4.81495C8.94934 4.29851 8.61076 3.94446 8.17572 3.84278C7.80713 3.75676 7.42175 3.87004 7.16522 4.1382C6.90855 3.87 6.52289 3.75668 6.1541 3.84282C5.71883 3.94453 5.38021 4.29855 5.22372 4.81499L3.45675 9.55025C3.39124 9.72548 3.293 9.92755 3.18894 10.1415C2.83434 10.8705 2.39325 11.7775 2.60746 12.8126L2.70566 13.4234C2.71177 13.4614 2.7253 13.4978 2.74548 13.5306C2.76566 13.5634 2.79209 13.5918 2.82327 13.6144C2.85445 13.6369 2.88976 13.6531 2.92719 13.662C2.96462 13.6709 3.00344 13.6723 3.04142 13.6662C3.07941 13.6601 3.11582 13.6466 3.14858 13.6264C3.18133 13.6062 3.20979 13.5798 3.23234 13.5486C3.25488 13.5174 3.27106 13.4821 3.27995 13.4447C3.28885 13.4072 3.29028 13.3684 3.28417 13.3304L3.18488 12.7129C3.1841 12.7084 3.18328 12.7038 3.18238 12.6993C3.00582 11.8575 3.38304 11.082 3.71585 10.3978C3.82612 10.171 3.93034 9.95677 4.00565 9.75529L5.77602 5.01089C5.77837 5.00464 5.78047 4.99835 5.78235 4.99198C5.87727 4.67285 6.0566 4.46738 6.28746 4.41343C6.45699 4.37379 6.63308 4.42539 6.74695 4.54804C6.87753 4.68874 6.90726 4.90058 6.8307 5.14452C6.82931 5.1489 6.82803 5.15332 6.82687 5.15776L5.83469 8.93049C5.38075 9.10151 5.05693 9.53978 5.05693 10.0524V11.7225C5.05693 12.0111 4.94228 12.3348 4.7065 12.7121C4.66532 12.778 4.652 12.8576 4.66948 12.9333C4.68695 13.009 4.73379 13.0747 4.79968 13.1159C4.86558 13.157 4.94513 13.1704 5.02085 13.1529C5.09656 13.1354 5.16223 13.0886 5.20341 13.0227C5.49911 12.5495 5.64286 12.1242 5.64286 11.7225V10.0524C5.64286 9.71455 5.91829 9.43963 6.25684 9.43963C6.59601 9.43963 6.87191 9.71451 6.87191 10.0524V15.2263C6.87191 15.9699 6.82785 16.5201 6.23914 17.3577C6.23726 17.3603 6.23542 17.363 6.23363 17.3657L4.80689 19.5466C4.77798 19.5908 4.76154 19.6419 4.75932 19.6947C4.7571 19.7474 4.76917 19.7998 4.79427 19.8463C4.81936 19.8927 4.85654 19.9315 4.90187 19.9586C4.94721 19.9856 4.99901 19.9999 5.05181 20C5.10052 20 5.14848 19.9879 5.19134 19.9648C5.2342 19.9416 5.2706 19.9081 5.29724 19.8674L6.72136 17.6905C6.91597 17.4131 7.05937 17.1587 7.16507 16.9181C7.27073 17.1586 7.41397 17.4129 7.60834 17.6904L9.03259 19.8674C9.05363 19.8996 9.08081 19.9274 9.11259 19.9491C9.14438 19.9708 9.18012 19.986 9.2178 19.9939C9.25547 20.0017 9.29432 20.0021 9.33214 19.9949C9.36995 19.9878 9.40598 19.9732 9.43817 19.9521C9.50319 19.9096 9.54864 19.843 9.56454 19.7669C9.58043 19.6909 9.56547 19.6116 9.52293 19.5466L8.09615 17.3657C8.0944 17.3631 8.09262 17.3605 8.0908 17.3579C7.50194 16.5185 7.45788 15.9689 7.45788 15.2262V10.0524C7.45788 9.71451 7.73381 9.43959 8.07299 9.43959C8.41216 9.43959 8.68806 9.71447 8.68806 10.0524V11.7225C8.68806 12.1242 8.83181 12.5494 9.12751 13.0226C9.14788 13.0553 9.17448 13.0836 9.2058 13.106C9.23713 13.1283 9.27255 13.1443 9.31004 13.1529C9.34754 13.1616 9.38637 13.1627 9.42432 13.1564C9.46228 13.15 9.4986 13.1362 9.53121 13.1158C9.56384 13.0954 9.59213 13.0688 9.61448 13.0375C9.63682 13.0062 9.65277 12.9707 9.66143 12.9332C9.67008 12.8958 9.67127 12.8569 9.66492 12.819C9.65857 12.781 9.64481 12.7447 9.62442 12.7121C9.38864 12.3348 9.27399 12.011 9.27399 11.7224V10.0523C9.27399 9.54006 8.95024 9.10197 8.4963 8.93077L7.50405 5.15772C7.5029 5.15327 7.50163 5.14886 7.50022 5.14448C7.42362 4.90038 7.45335 4.68851 7.58393 4.54777C7.69756 4.42535 7.87334 4.37386 8.04252 4.4134C8.27318 4.46726 8.45248 4.67277 8.54744 4.99198C8.54931 4.99839 8.55146 5.00472 8.55376 5.01097L10.3253 9.75548C10.4006 9.95677 10.5048 10.171 10.6151 10.3978C10.9477 11.0819 11.3249 11.8575 11.1483 12.6992ZM7.8744 8.87022C7.59268 8.91717 7.34401 9.06229 7.16476 9.26908C6.98569 9.06256 6.73746 8.91756 6.45617 8.87042L7.1653 6.174L7.8744 8.87022Z" fill="#282828"/>
<path d="M14.2388 19.4939L11.8573 17.2446L11.84 17.2236C11.477 16.7814 11.19 16.4317 11.2684 15.638L11.4309 14.6297C11.4433 14.553 11.4247 14.4745 11.3792 14.4116C11.3337 14.3486 11.2651 14.3062 11.1884 14.2939C11.1504 14.2877 11.1115 14.2891 11.0741 14.2979C11.0366 14.3068 11.0013 14.3229 10.9701 14.3455C10.9389 14.368 10.9124 14.3965 10.8923 14.4292C10.8721 14.462 10.8586 14.4984 10.8525 14.5364L10.6885 15.5534C10.6876 15.5591 10.6868 15.5648 10.6862 15.5704C10.5804 16.6126 11.009 17.1347 11.3871 17.5954L11.4159 17.6305C11.4238 17.6402 11.4323 17.6493 11.4414 17.6578L13.8365 19.9199C13.8908 19.9713 13.9628 19.9999 14.0376 19.9998C14.0774 19.9999 14.1169 19.9917 14.1536 19.976C14.1902 19.9602 14.2232 19.937 14.2506 19.908C14.277 19.88 14.2977 19.8472 14.3114 19.8112C14.3251 19.7753 14.3316 19.737 14.3305 19.6985C14.3295 19.6601 14.3208 19.6222 14.3051 19.5871C14.2893 19.552 14.2668 19.5203 14.2388 19.4939ZM1.00446 5.21857L2.92209 5.65474C2.99786 5.67193 3.07735 5.65835 3.1431 5.61696C3.20885 5.57558 3.25548 5.50979 3.27275 5.43404C3.28998 5.35827 3.2764 5.27877 3.23502 5.21301C3.19363 5.14725 3.12782 5.10062 3.05205 5.08338L1.13442 4.64721C1.0969 4.63868 1.05807 4.63762 1.02015 4.64409C0.98222 4.65056 0.94594 4.66444 0.913378 4.68494C0.847617 4.72633 0.80099 4.79214 0.783757 4.86791C0.766523 4.94368 0.780094 5.02319 0.821483 5.08895C0.862872 5.15471 0.92869 5.20134 1.00446 5.21857ZM9.85514 2.97883C9.90852 3.02586 9.97724 3.05178 10.0484 3.05172C10.0901 3.05178 10.1313 3.04293 10.1693 3.02575C10.2073 3.00857 10.2411 2.98346 10.2686 2.95211L11.5649 1.4767C11.615 1.41816 11.64 1.34223 11.6346 1.26537C11.6291 1.18851 11.5936 1.11689 11.5357 1.06604C11.4778 1.01518 11.4022 0.989178 11.3252 0.993661C11.2483 0.998143 11.1763 1.03275 11.1247 1.08999L9.82838 2.5654C9.77711 2.62377 9.75112 2.70012 9.75614 2.77766C9.76116 2.85519 9.79677 2.92755 9.85514 2.97883ZM10.9631 5.43404C10.9804 5.50979 11.027 5.57558 11.0928 5.61696C11.1585 5.65835 11.238 5.67193 11.3138 5.65474L13.2314 5.21857C13.3067 5.20089 13.372 5.15414 13.4129 5.08854C13.4539 5.02294 13.4673 4.9438 13.4501 4.86839C13.4329 4.79297 13.3867 4.7274 13.3214 4.68597C13.256 4.64455 13.177 4.63063 13.1015 4.64725L11.1838 5.08342C11.1081 5.10065 11.0423 5.14727 11.0009 5.21302C10.9595 5.27878 10.9459 5.35828 10.9631 5.43404Z" fill="#282828"/>
</svg>
