<svg width="21" height="18" viewBox="0 0 21 18" fill="none" xmlns="http://www.w3.org/2000/svg">
<path d="M1.53846 12.6924H18.841C19.1384 12.6924 19.3795 12.9335 19.3795 13.2308V16.4616C19.3795 16.759 19.1384 17.0001 18.841 17.0001H1.53846C1.24109 17.0001 1 16.759 1 16.4616V13.2308C1 12.9335 1.24109 12.6924 1.53846 12.6924Z" stroke="#282828"/>
<path d="M14.8826 1.66323C14.8826 1.66323 13.3569 3.15464 13.2759 4.38693C13.158 6.18329 16.5604 6.32206 16.0693 8.054C15.831 8.89411 14.5759 8.93201 14.6722 9.79992C14.7685 10.6678 16.4181 11.197 16.4181 11.197" stroke="#282828" stroke-width="0.8" stroke-linecap="round" stroke-linejoin="round"/>
<path d="M16.8826 1.21352C16.8826 1.21352 15.3569 2.70493 15.2759 3.93722C15.158 5.73358 18.5604 5.87236 18.0693 7.60429C17.831 8.4444 16.5759 8.4823 16.6722 9.35021C16.7685 10.2181 18.4181 10.7473 18.4181 10.7473" stroke="#282828" stroke-width="0.8" stroke-linecap="round" stroke-linejoin="round"/>
<line x1="15.5" y1="13.3501" x2="15.5" y2="16.3501" stroke="#282828"/>
</svg>
