<svg width="30" height="30" viewBox="0 0 30 30" fill="none" xmlns="http://www.w3.org/2000/svg">
<path d="M13.5 0.866025C14.4282 0.330127 15.5718 0.330127 16.5 0.866025L26.4904 6.63397C27.4186 7.16987 27.9904 8.16025 27.9904 9.23205V20.7679C27.9904 21.8397 27.4186 22.8301 26.4904 23.366L16.5 29.134C15.5718 29.6699 14.4282 29.6699 13.5 29.134L3.50962 23.366C2.58142 22.8301 2.00962 21.8397 2.00962 20.7679V9.23205C2.00962 8.16025 2.58142 7.16987 3.50962 6.63397L13.5 0.866025Z" fill="url(#paint0_linear_19_2)"/>
<path d="M14.2977 8.78783C14.6009 8.23188 15.3991 8.23188 15.7023 8.78783L17.1546 11.4508C17.2697 11.6617 17.4735 11.8098 17.7097 11.8541L20.6911 12.4124C21.3135 12.5289 21.5602 13.2881 21.1252 13.7483L19.0413 15.9524C18.8762 16.127 18.7984 16.3666 18.8293 16.6049L19.2196 19.6129C19.3011 20.2409 18.6553 20.7101 18.0832 20.4386L15.3431 19.1379C15.126 19.0348 14.874 19.0348 14.6569 19.1378L11.9168 20.4386C11.3447 20.7101 10.6989 20.2409 10.7804 19.6129L11.1707 16.6049C11.2016 16.3666 11.1238 16.127 10.9587 15.9524L8.87484 13.7483C8.43979 13.2881 8.68647 12.5289 9.30891 12.4124L12.2903 11.8541C12.5265 11.8098 12.7303 11.6617 12.8454 11.4508L14.2977 8.78783Z" fill="black"/>
<defs>
<linearGradient id="paint0_linear_19_2" x1="15" y1="0" x2="15" y2="30" gradientUnits="userSpaceOnUse">
<stop stop-color="#FFBB00"/>
<stop offset="1" stop-color="#FFCB3E"/>
</linearGradient>
</defs>
</svg>
