<svg width="391" height="512" viewBox="0 0 391 512" fill="none" xmlns="http://www.w3.org/2000/svg">
<path d="M381.848 489.931H354.262C351.921 489.931 349.676 489.001 348.02 487.346C346.365 485.69 345.435 483.445 345.435 481.103C345.435 478.762 346.365 476.517 348.02 474.861C349.676 473.206 351.921 472.276 354.262 472.276H381.848C384.19 472.276 386.435 473.206 388.09 474.861C389.746 476.517 390.676 478.762 390.676 481.103C390.676 483.445 389.746 485.69 388.09 487.346C386.435 489.001 384.19 489.931 381.848 489.931Z" fill="#42434D"/>
<path d="M368.607 0H43.0897C19.3214 0 0.0552244 19.2662 0.0552244 43.0345C0.0552244 99.8952 -0.0760878 461.971 0.066257 446.458C-0.16326 470.401 19.9438 489.931 43.9394 489.931H356.469C358.81 489.931 361.056 489.001 362.711 487.345C364.367 485.69 365.297 483.445 365.297 481.103V403.862H368.607C378.361 403.862 386.262 395.961 386.262 386.207V17.6552C386.262 7.90069 378.361 0 368.607 0Z" fill="#585966"/>
<path d="M386.262 146.311V386.207C386.262 395.958 378.358 403.862 368.607 403.862H51.9172V167.046C51.9172 160.522 58.7388 156.256 64.6058 159.109C161.966 206.444 276.937 202.187 372.575 138.948C378.444 135.067 386.262 139.274 386.262 146.311Z" fill="#42434D"/>
<path d="M51.9172 0V403.862H43.0897C19.3214 403.862 0.0551758 423.128 0.0551758 446.897V43.0345C0.0551758 19.2662 19.3214 0 43.0897 0H51.9172Z" fill="#42434D"/>
<path d="M51.9172 161.401V403.862H43.0897C19.3214 403.862 0.0551758 423.128 0.0551758 446.896V170.455C0.0551758 167.962 1.11559 165.592 2.95173 163.906C10.6141 156.872 20.8353 152.575 32.0552 152.575H43.0897C44.2489 152.575 45.3967 152.803 46.4677 153.246C47.5388 153.69 48.5119 154.34 49.3316 155.16C50.1514 155.979 50.8016 156.952 51.2453 158.023C51.6889 159.094 51.9172 160.242 51.9172 161.401Z" fill="#2C2C33"/>
<path d="M365.297 403.862V481.104C365.297 483.445 364.367 485.69 362.711 487.346C361.056 489.001 358.81 489.931 356.469 489.931H43.9394C19.8081 489.931 -0.39829 470.184 0.0640548 446.057C0.513158 422.677 19.6028 403.862 43.0897 403.862H365.297Z" fill="#FFEBD2"/>
<path d="M365.297 403.862V410.483C365.297 412.824 364.366 415.07 362.711 416.725C361.056 418.381 358.81 419.311 356.469 419.311H69.5724C41.6927 419.311 23.3578 444.374 26.9937 468.619C28.2792 477.191 17.8792 482.423 11.904 476.145C-14.0943 448.823 5.54373 403.862 43.0897 403.862H365.297Z" fill="#FFD9AD"/>
<path d="M150.477 446.896V498.825C150.477 507.498 142.201 513.799 133.782 511.536L113.71 506.141L93.6387 511.536C85.2193 513.799 76.9435 507.498 76.9435 498.825V446.896H150.477Z" fill="#FF6D7A"/>
<path d="M100.28 504.471C101.45 506.923 99.9746 509.834 97.3518 510.538L93.6387 511.535C85.2193 513.797 76.9435 507.497 76.9435 498.824V446.896H99.0124V498.825C99.0124 500.866 99.4704 502.775 100.28 504.471Z" fill="#FF8C95"/>
<path d="M365.297 442.483V451.31C365.297 452.481 364.832 453.604 364.004 454.431C363.176 455.259 362.053 455.724 360.883 455.724H64.7857C60.0828 455.724 55.978 452.173 55.6767 447.48C55.5967 446.274 55.7651 445.065 56.1716 443.927C56.578 442.789 57.2139 441.746 58.0397 440.864C58.8656 439.981 59.8638 439.278 60.9726 438.797C62.0814 438.317 63.2771 438.069 64.4856 438.069H360.883C362.053 438.069 363.176 438.534 364.004 439.362C364.832 440.189 365.297 441.312 365.297 442.483Z" fill="#FFCA8C"/>
<path d="M193.412 293.771L163.564 355.31C159.868 362.924 150.698 366.113 143.073 362.417L133.981 358.003C126.367 354.306 123.189 345.136 126.886 337.512L156.734 275.983L193.412 293.771Z" fill="#2C2C33"/>
<path d="M255.735 116.37C313.258 166.764 288.982 249.479 232.75 302.003C228.127 306.317 221.308 307.311 215.625 304.552L156.734 275.984L231.813 121.192C236.237 112.077 248.121 109.694 255.735 116.37ZM318.952 68.414H297.345C295.004 68.414 292.759 67.4839 291.103 65.8284C289.448 64.1729 288.518 61.9276 288.518 59.5864C288.518 57.2452 289.448 54.9998 291.103 53.3443C292.759 51.6888 295.004 50.7588 297.345 50.7588H318.952C321.293 50.7588 323.538 51.6888 325.194 53.3443C326.849 54.9998 327.779 57.2452 327.779 59.5864C327.779 61.9276 326.849 64.1729 325.194 65.8284C323.538 67.4839 321.293 68.414 318.952 68.414ZM245.093 68.414H120.331C117.99 68.414 115.745 67.4839 114.089 65.8284C112.434 64.1729 111.504 61.9276 111.504 59.5864C111.504 57.2452 112.434 54.9998 114.089 53.3443C115.745 51.6888 117.99 50.7588 120.331 50.7588H245.093C247.434 50.7588 249.679 51.6888 251.335 53.3443C252.99 54.9998 253.92 57.2452 253.92 59.5864C253.92 61.9276 252.99 64.1729 251.335 65.8284C249.679 67.4839 247.434 68.414 245.093 68.414Z" fill="#EEF7FF"/>
<path d="M232.75 302.003C228.127 306.317 221.308 307.31 215.625 304.552L156.734 275.983L195.55 195.953C197.009 192.946 200.039 190.999 203.381 190.98C228.45 190.854 253.407 187.633 277.686 181.39C283.319 179.94 288.757 184.3 288.668 190.116C288.064 229.352 265.989 270.953 232.75 302.003Z" fill="#CBE3FA"/>
<path d="M283.73 196.679C321.39 210.439 331.388 285.892 313.997 297.335C310.764 299.465 304.331 300.855 299.664 298.361C292.723 294.643 294.235 284.712 286.886 281.015C283.476 279.294 278.775 279.239 275.355 280.883C262.014 287.272 271.404 317.628 257.401 325.407C251.167 328.861 243.907 325.868 242.99 325.473C233.035 321.181 227.057 306.483 228.921 287.492C229.617 280.441 228.502 273.368 225.887 266.792C210.019 226.913 247.724 183.526 283.73 196.679Z" fill="#FF6D7A"/>
</svg>
