<svg width="16" height="16" viewBox="0 0 16 16" fill="none" xmlns="http://www.w3.org/2000/svg">
<path d="M4 15.425C3.71667 15.425 3.479 15.3262 3.287 15.1287C3.095 14.9311 2.99934 14.6868 3 14.3959C3 14.1043 3.096 13.8597 3.288 13.6621C3.48 13.4645 3.71734 13.366 4 13.3667H10.1C11.15 13.3667 12.0627 13.0237 12.838 12.3376C13.6133 11.6515 14.0007 10.7938 14 9.76467C14 8.73551 13.6123 7.87788 12.837 7.19177C12.0617 6.50567 11.1493 6.16261 10.1 6.16261H3.8L5.7 8.11802C5.88334 8.3067 5.975 8.54683 5.975 8.83843C5.975 9.13002 5.88334 9.37016 5.7 9.55884C5.51667 9.74752 5.28334 9.84186 5 9.84186C4.71667 9.84186 4.48334 9.74752 4.3 9.55884L0.700003 5.85387C0.600003 5.75095 0.529003 5.63946 0.487003 5.51939C0.445003 5.39932 0.424337 5.27067 0.425003 5.13345C0.425003 4.99623 0.446003 4.86759 0.488003 4.74752C0.530003 4.62745 0.60067 4.51596 0.700003 4.41304L4.3 0.708067C4.48334 0.519388 4.71667 0.425049 5 0.425049C5.28334 0.425049 5.51667 0.519388 5.7 0.708067C5.88334 0.896747 5.975 1.13688 5.975 1.42848C5.975 1.72007 5.88334 1.96021 5.7 2.14889L3.8 4.10429H10.1C11.7167 4.10429 13.1043 4.6446 14.263 5.72522C15.4217 6.80584 16.0007 8.15232 16 9.76467C16 11.377 15.4207 12.7235 14.262 13.8041C13.1033 14.8847 11.716 15.425 10.1 15.425H4Z" fill="#767676"/>
</svg>
