<svg width="512" height="512" viewBox="0 0 512 512" fill="none" xmlns="http://www.w3.org/2000/svg">
<mask id="mask0_19_30" style="mask-type:luminance" maskUnits="userSpaceOnUse" x="0" y="0" width="512" height="512">
<path d="M0 3.05176e-05H511.999V511.999H0V3.05176e-05Z" fill="white"/>
</mask>
<g mask="url(#mask0_19_30)">
<path d="M321.263 411.229L255.999 390.028L190.736 411.229C190.736 411.229 -7.66596 410.665 30.5629 490.732H481.437C519.665 410.665 321.263 411.229 321.263 411.229Z" fill="#0C99E6"/>
<path d="M481.436 490.733C475.282 503.383 430.2 515.114 343.276 508.754C256.352 502.394 176.495 484.019 176.495 484.019V469.721C176.495 469.721 339.036 452.925 400.165 453.985C461.295 455.045 487.796 477.659 481.436 490.733Z" fill="#FFAEA1"/>
<path d="M404.022 455.319C404.045 454.927 404.056 454.517 404.061 454.096C402.771 454.053 401.487 454.007 400.165 453.984C339.036 452.924 176.495 469.721 176.495 469.721V484.019C176.495 484.019 222.604 494.626 282.883 502.511C289.288 501.117 295.655 499.711 301.942 498.3C327.033 492.671 348.329 487.518 363.528 483.4C372.032 481.097 378.463 479.169 383.19 477.506C389.156 475.407 403.129 470.491 404.022 455.319Z" fill="#F4958C"/>
<path d="M30.5629 490.733C37.3449 503.063 64.8378 520.767 148.935 506.987C233.031 493.206 382.505 460.08 382.858 454.073C383.212 448.066 369.071 436.67 350.697 436.67C332.323 436.67 329.496 442.014 318.895 442.014C308.295 442.014 294.868 425.363 283.56 427.66C272.253 429.957 265.54 452.925 265.54 452.925C265.54 452.925 158.476 445.858 101.586 449.391C44.6969 452.925 22.7889 476.599 30.5629 490.733Z" fill="#FFCFC2"/>
<path d="M72.9648 490.733C65.1908 476.599 87.0987 452.925 143.988 449.391C149.891 449.024 156.34 448.773 163.148 448.615C140.934 448.223 118.929 448.314 101.586 449.391C44.6969 452.925 22.7889 476.599 30.5629 490.733C36.4069 501.359 57.6388 515.974 117.22 510.991C89.1147 507.903 77.1298 498.306 72.9648 490.733Z" fill="#FFAEA1"/>
<path d="M20.563 417.589V401.158C20.563 397.801 25.5099 397.448 26.9229 401.158C28.3369 404.868 27.9179 417.957 29.9829 421.572V427.659L20.563 417.589Z" fill="#F4958C"/>
<path d="M491.436 417.589V401.158C491.436 397.801 486.489 397.448 485.076 401.158C483.662 404.868 484.081 417.957 482.016 421.572V427.659L491.436 417.589Z" fill="#F4958C"/>
<path d="M501.198 408.447C500.403 406.194 496.958 407.122 494.308 410.037C492.456 412.074 485.429 418.509 480.866 422.609C479.789 423.577 478.397 424.122 476.95 424.143C475.502 424.165 474.095 423.661 472.99 422.726C469.795 420.027 470.266 414.965 473.912 412.919C479.103 410.006 485.183 406.037 486.357 402.882C488.477 397.184 483.31 396.521 480.527 398.509C477.744 400.497 442.674 410.17 442.674 410.17L384.478 331.726C384.478 331.726 380.944 218.654 366.81 206.993C352.676 195.334 279.321 182.967 279.321 182.967V157.525H232.678V182.967C232.678 182.967 159.324 195.334 145.19 206.993C131.056 218.654 127.522 331.726 127.522 331.726L69.3258 410.17C69.3258 410.17 34.2559 400.497 31.4729 398.509C28.6899 396.521 23.5229 397.184 25.6429 402.882C26.8169 406.037 32.8959 410.006 38.0879 412.919C41.7339 414.965 42.2049 420.027 39.0099 422.726C37.9046 423.661 36.4979 424.165 35.05 424.143C33.6021 424.122 32.211 423.577 31.1339 422.609C26.5709 418.509 19.544 412.074 17.692 410.037C15.042 407.122 11.597 406.194 10.802 408.447C10.007 410.7 21.7999 427.66 24.5829 431.503C27.3649 435.346 39.5559 443.296 47.1089 441.839C54.6619 440.381 80.9858 426.07 80.9858 426.07C80.9858 426.07 156.603 369.181 163.67 349.04C170.737 328.899 176.39 260.95 176.39 260.95H335.609C335.609 260.95 341.263 328.899 348.33 349.04C355.397 369.181 431.014 426.07 431.014 426.07C431.014 426.07 457.338 440.381 464.891 441.839C472.444 443.296 484.635 435.346 487.417 431.503C490.2 427.66 501.993 410.7 501.198 408.447Z" fill="#FFAEA1"/>
<path d="M232.678 182.965C232.678 182.965 268.366 185.792 271.9 157.524H232.678V182.965Z" fill="#F4958C"/>
<path d="M300.659 76.6778C300.659 76.6778 303.134 58.2159 294.244 47.9079C292.912 46.3639 290.382 47.4149 290.544 49.4469L290.649 50.7539C290.649 50.7539 285.547 40.8 272.416 36.892C270.593 36.349 269.06 38.354 270.03 39.991L270.629 41.001C270.629 41.001 262.713 33.086 236.481 32.539C234.554 32.499 233.6 34.866 235.007 36.182L236.51 37.587C236.51 37.587 226.632 39.329 213.546 47.2519C211.931 48.2289 212.333 50.6809 214.174 51.1019L215.245 51.3469C210.18 57.1709 207.38 63.2359 205.953 67.1439C205.332 68.8429 206.995 70.4799 208.684 69.8329C208.684 69.8329 204.664 88.4848 209.533 104.578L255.998 115.074L302.464 104.578C302.464 104.578 305.279 91.0518 300.659 76.6778Z" fill="#8C4F5C"/>
<path d="M236.993 75.7468C223.303 72.8108 213.563 67.4368 208.685 69.8328C208.685 69.8328 204.665 88.4837 209.534 104.578L238.215 111.056L236.993 75.7468Z" fill="#7B3C47"/>
<path d="M291.458 113.468C291.458 113.468 296.025 102.348 304.166 104.93C312.308 107.511 303.97 131.608 288.082 133.126L291.458 113.468Z" fill="#FFAEA1"/>
<path d="M220.54 113.468C220.54 113.468 215.973 102.348 207.832 104.93C199.69 107.511 208.028 131.608 223.916 133.126L220.54 113.468Z" fill="#F4958C"/>
<path d="M292.596 99.4356C292.131 98.3016 291.755 96.6776 291.399 94.8016L255.999 84.5346L220.598 94.8016C220.242 96.6776 219.866 98.3016 219.401 99.4356C217.309 104.538 214.681 105.577 214.331 105.696C214.305 106.499 214.291 107.302 214.29 108.106C214.29 138.818 232.964 174.838 255.999 174.838C279.034 174.838 297.707 138.818 297.707 108.106C297.706 107.302 297.692 106.499 297.666 105.696C297.316 105.577 294.688 104.538 292.596 99.4356Z" fill="#FFCFC2"/>
<path d="M228.633 108.105C228.633 102.382 229.289 96.9656 230.495 91.9306L220.598 94.8006C220.242 96.6766 219.867 98.3006 219.401 99.4346C217.309 104.537 214.681 105.577 214.332 105.695C214.306 106.493 214.29 107.295 214.29 108.105C214.29 138.817 232.964 174.838 255.999 174.838C258.444 174.838 260.84 174.428 263.17 173.665C243.553 167.245 228.633 135.557 228.633 108.105Z" fill="#FFAEA1"/>
<path d="M255.999 78.9018C241.42 78.9018 235.585 74.2798 230.54 74.2678H230.535C229.586 74.2604 228.645 74.4395 227.765 74.7948C223.043 76.6888 221.962 87.6218 220.599 94.8008H291.399C290.035 87.6218 288.955 76.6888 284.233 74.7948C283.353 74.4395 282.412 74.2604 281.463 74.2678H281.458C276.413 74.2798 270.579 78.9018 255.999 78.9018Z" fill="white"/>
<path d="M248.049 86.8518C248.049 84.7433 248.887 82.7212 250.378 81.2303C251.869 79.7394 253.891 78.9018 255.999 78.9018C241.419 78.9018 235.584 74.2798 230.54 74.2678H230.534C229.586 74.2609 228.645 74.4402 227.765 74.7958C223.043 76.6888 221.962 87.6218 220.598 94.8018H255.999C253.891 94.8018 251.869 93.9642 250.378 92.4733C248.887 90.9824 248.049 88.9602 248.049 86.8518Z" fill="#EBF0F3"/>
<path d="M335.609 260.949L323.271 303.123C321.936 307.684 321.259 312.411 321.259 317.163V411.229H190.739V317.163C190.739 312.411 190.062 307.684 188.727 303.123L176.389 260.949C182.849 260.949 188.079 255.719 188.079 249.259V192.039C198.149 189.639 208.199 187.559 216.199 185.999V213.199C216.199 235.18 234.018 252.999 255.999 252.999C277.98 252.999 295.799 235.18 295.799 213.199V185.999C303.799 187.559 313.849 189.639 323.919 192.039V249.259C323.919 255.719 329.149 260.949 335.609 260.949Z" fill="#3E4A68"/>
<path d="M254.567 306.999C217.135 306.999 205.813 301.478 199.02 292.121L176.389 260.949L188.727 303.123C190.062 307.683 190.74 312.411 190.739 317.162V411.229H211.999V320.528C211.993 317.777 211.637 315.039 210.939 312.378C242.559 311.578 254.567 306.999 254.567 306.999Z" fill="#303A59"/>
</g>
</svg>
