<svg width="21" height="20" viewBox="0 0 21 20" fill="none" xmlns="http://www.w3.org/2000/svg">
<mask id="path-1-inside-1_12_347" fill="white">
<path d="M18.406 4.77763C18.6518 4.54067 18.9856 4.39449 19.3532 4.39449C20.1066 4.39449 20.7194 5.0073 20.7194 5.76063C20.7194 6.51395 20.1065 7.1268 19.3532 7.1268C19.3227 7.1268 19.2924 7.12543 19.2624 7.12346L17.594 11.4877C18.0735 11.7856 18.3936 12.317 18.3936 12.9219C18.3936 13.8525 17.6365 14.6095 16.7059 14.6095C16.0586 14.6095 15.4955 14.243 15.2126 13.7066L11.8027 14.5404C11.7784 15.1289 11.3802 15.6225 10.8398 15.7891V17.328C11.3976 17.5 11.8042 18.0203 11.8042 18.6338C11.8042 19.3871 11.1913 20 10.438 20C9.68467 20 9.07182 19.3871 9.07182 18.6338C9.07182 18.0203 9.47834 17.5001 10.0362 17.328V15.7891C9.47834 15.6172 9.07182 15.0969 9.07182 14.4834C9.07182 13.73 9.68467 13.1172 10.438 13.1172C10.9271 13.1172 11.3568 13.3757 11.5982 13.7631L15.0185 12.9268L15.0184 12.9219C15.0184 12.3675 15.2872 11.8747 15.7012 11.5669L14.6769 9.12784C14.591 8.92324 14.6872 8.68773 14.8918 8.60178C15.0964 8.51587 15.3319 8.61203 15.4179 8.81667L16.4419 11.2551C16.5279 11.2415 16.6161 11.2343 16.706 11.2343C16.7469 11.2344 16.7878 11.2361 16.8286 11.2392L18.512 6.83588C18.1928 6.58559 17.9871 6.1968 17.9871 5.76063C17.987 5.66644 17.9968 5.5725 18.0161 5.48032L13.2272 2.83195C13.1559 2.90927 13.0775 2.97978 12.9931 3.04259L14.0174 5.48173C14.1033 5.68633 14.0071 5.92183 13.8025 6.00778C13.7533 6.02851 13.7005 6.03919 13.6471 6.03921C13.5679 6.03923 13.4905 6.01586 13.4246 5.97204C13.3586 5.92822 13.3071 5.86589 13.2765 5.79289L12.2525 3.35444C12.1664 3.36802 12.0782 3.37525 11.9883 3.37525C11.5935 3.37525 11.2303 3.23867 10.9426 3.01076L7.8458 5.42129C7.90326 5.57205 7.935 5.73543 7.935 5.90612C7.935 6.65945 7.32215 7.2723 6.56883 7.2723C5.81551 7.2723 5.20266 6.65945 5.20266 5.90612C5.20271 5.86183 5.20489 5.81757 5.20921 5.77348L3.19077 4.93007C2.88306 5.34543 2.38955 5.61529 1.83408 5.61529C0.903514 5.61529 0.146454 4.85823 0.146454 3.92767C0.146454 2.9971 0.903514 2.24004 1.83408 2.24004C2.76464 2.24004 3.5217 2.9971 3.5217 3.92767C3.5217 4.01651 3.51471 4.1037 3.50141 4.18889L5.51969 5.03222C5.77046 4.73162 6.14765 4.53995 6.56883 4.53995C6.84907 4.53973 7.12252 4.6262 7.35169 4.78751L10.4485 2.37698C10.3538 2.16635 10.3007 1.93313 10.3007 1.68762C10.3007 0.75706 11.0577 0 11.9883 0C12.9188 0 13.6759 0.75706 13.6759 1.68762C13.6759 1.83676 13.656 1.98523 13.6169 2.12914L18.406 4.77763Z"/>
</mask>
<path d="M18.406 4.77763L17.922 5.65272L18.5682 6.01011L19.0999 5.49762L18.406 4.77763ZM13.6169 2.12914L12.652 1.86674L12.446 2.6243L13.133 3.00423L13.6169 2.12914ZM13.6759 1.68762L14.6759 1.68775V1.68762H13.6759ZM10.4485 2.37698L11.0627 3.1661L11.6827 2.68348L11.3605 1.96689L10.4485 2.37698ZM7.35169 4.78751L6.7761 5.60525L7.38161 6.03146L7.96593 5.57663L7.35169 4.78751ZM6.56883 4.53995V5.53995L6.56961 5.53995L6.56883 4.53995ZM5.51969 5.03222L5.13415 5.95491L5.81492 6.23937L6.28757 5.67281L5.51969 5.03222ZM3.50141 4.18889L2.51338 4.03462L2.39243 4.80929L3.11587 5.11158L3.50141 4.18889ZM3.19077 4.93007L3.57632 4.00739L2.85354 3.70537L2.38725 4.3348L3.19077 4.93007ZM5.20921 5.77348L6.20446 5.87086L6.27639 5.13562L5.59476 4.8508L5.20921 5.77348ZM5.20266 5.90612L4.20266 5.90498V5.90612H5.20266ZM7.8458 5.42129L7.23155 4.63218L6.648 5.08642L6.91137 5.77743L7.8458 5.42129ZM10.9426 3.01076L11.5635 2.22687L10.948 1.73934L10.3283 2.22165L10.9426 3.01076ZM12.2525 3.35444L13.1745 2.96726L12.871 2.24452L12.0967 2.36665L12.2525 3.35444ZM13.2765 5.79289L14.1985 5.40583L14.1985 5.40571L13.2765 5.79289ZM13.6471 6.03921L13.6468 5.03921H13.6468L13.6471 6.03921ZM13.8025 6.00778L13.4152 5.08582L13.4143 5.08623L13.8025 6.00778ZM14.0174 5.48173L14.9394 5.09459L14.9394 5.09454L14.0174 5.48173ZM12.9931 3.04259L12.3961 2.24034L11.7679 2.70781L12.0711 3.42978L12.9931 3.04259ZM13.2272 2.83195L13.7112 1.95686L13.0245 1.57713L12.4924 2.15373L13.2272 2.83195ZM18.0161 5.48032L18.9948 5.6855L19.1464 4.96265L18.5001 4.60522L18.0161 5.48032ZM17.9871 5.76063H18.9871V5.76053L17.9871 5.76063ZM18.512 6.83588L19.4461 7.19298L19.7094 6.50406L19.129 6.04895L18.512 6.83588ZM16.8286 11.2392L16.7522 12.2363L17.4962 12.2933L17.7627 11.5963L16.8286 11.2392ZM16.706 11.2343L16.7101 10.2343H16.706V11.2343ZM16.4419 11.2551L15.5199 11.6423L15.8234 12.3651L16.5977 12.2429L16.4419 11.2551ZM15.4179 8.81667L16.3399 8.42949L16.3399 8.42945L15.4179 8.81667ZM14.8918 8.60178L14.5046 7.67979L14.5045 7.67982L14.8918 8.60178ZM14.6769 9.12784L13.7549 9.51497L13.7549 9.51503L14.6769 9.12784ZM15.7012 11.5669L16.2979 12.3694L16.9265 11.902L16.6232 11.1797L15.7012 11.5669ZM15.0184 12.9219H14.0184V12.9341L14.0187 12.9464L15.0184 12.9219ZM15.0185 12.9268L15.256 13.8981L16.0379 13.7069L16.0182 12.9023L15.0185 12.9268ZM11.5982 13.7631L10.7494 14.2919L11.1323 14.9065L11.8357 14.7345L11.5982 13.7631ZM10.0362 15.7891H11.0362V15.051L10.3308 14.8335L10.0362 15.7891ZM10.0362 17.328L10.3308 18.2836L11.0362 18.0661V17.328H10.0362ZM10.8398 17.328H9.83981V18.0662L10.5452 18.2837L10.8398 17.328ZM10.8398 15.7891L10.5451 14.8335L9.83981 15.051V15.7891H10.8398ZM11.8027 14.5404L11.5652 13.569L10.8347 13.7477L10.8036 14.4991L11.8027 14.5404ZM15.2126 13.7066L16.097 13.24L15.7329 12.5499L14.975 12.7353L15.2126 13.7066ZM17.594 11.4877L16.6599 11.1306L16.3652 11.9014L17.0662 12.337L17.594 11.4877ZM19.2624 7.12346L19.3277 6.1256L18.5917 6.07739L18.3283 6.76637L19.2624 7.12346ZM19.3532 3.39449C18.715 3.39449 18.1355 3.6494 17.712 4.05763L19.0999 5.49762C19.1681 5.43195 19.2563 5.39449 19.3532 5.39449V3.39449ZM18.8899 3.90253L14.1009 1.25405L13.133 3.00423L17.922 5.65272L18.8899 3.90253ZM14.5819 2.39153C14.6442 2.16215 14.6759 1.92548 14.6759 1.68775L12.6759 1.6875C12.6759 1.74804 12.6678 1.80831 12.652 1.86674L14.5819 2.39153ZM14.6759 1.68762C14.6759 0.204775 13.4711 -1 11.9883 -1V1C12.3666 1 12.6759 1.30935 12.6759 1.68762H14.6759ZM11.9883 -1C10.5054 -1 9.30065 0.204775 9.30065 1.68762H11.3007C11.3007 1.30935 11.61 1 11.9883 1V-1ZM9.30065 1.68762C9.30065 2.07882 9.38554 2.45149 9.53643 2.78707L11.3605 1.96689C11.322 1.88121 11.3007 1.78744 11.3007 1.68762H9.30065ZM9.83423 1.58786L6.73744 3.99839L7.96593 5.57663L11.0627 3.1661L9.83423 1.58786ZM7.92728 3.96977C7.52939 3.68971 7.05462 3.53957 6.56805 3.53995L6.56961 5.53995C6.64352 5.53989 6.71565 5.5627 6.7761 5.60525L7.92728 3.96977ZM6.56883 3.53995C5.83742 3.53995 5.18367 3.87396 4.75181 4.39162L6.28757 5.67281C6.35726 5.58928 6.45788 5.53995 6.56883 5.53995V3.53995ZM5.90523 4.10953L3.88695 3.2662L3.11587 5.11158L5.13415 5.95491L5.90523 4.10953ZM4.48944 4.34315C4.51056 4.20787 4.5217 4.0691 4.5217 3.92767H2.5217C2.5217 3.96391 2.51886 3.99953 2.51338 4.03462L4.48944 4.34315ZM4.5217 3.92767C4.5217 2.44482 3.31693 1.24004 1.83408 1.24004V3.24004C2.21236 3.24004 2.5217 3.54939 2.5217 3.92767H4.5217ZM1.83408 1.24004C0.351229 1.24004 -0.853546 2.44482 -0.853546 3.92767H1.14645C1.14645 3.54939 1.4558 3.24004 1.83408 3.24004V1.24004ZM-0.853546 3.92767C-0.853546 5.41051 0.35123 6.61529 1.83408 6.61529V4.61529C1.4558 4.61529 1.14645 4.30594 1.14645 3.92767H-0.853546ZM1.83408 6.61529C2.72106 6.61529 3.50689 6.18326 3.99429 5.52535L2.38725 4.3348C2.25923 4.5076 2.05804 4.61529 1.83408 4.61529V6.61529ZM2.80522 5.85276L4.82366 6.69617L5.59476 4.8508L3.57632 4.00739L2.80522 5.85276ZM4.21396 5.67611C4.20652 5.75216 4.20275 5.82854 4.20266 5.90498L6.20266 5.90727C6.20267 5.89512 6.20327 5.88297 6.20446 5.87086L4.21396 5.67611ZM4.20266 5.90612C4.20266 7.21173 5.26322 8.2723 6.56883 8.2723V6.2723C6.36779 6.2723 6.20266 6.10716 6.20266 5.90612H4.20266ZM6.56883 8.2723C7.87444 8.2723 8.935 7.21173 8.935 5.90612H6.935C6.935 6.10716 6.76987 6.2723 6.56883 6.2723V8.2723ZM8.935 5.90612C8.935 5.61049 8.87988 5.32659 8.78023 5.06515L6.91137 5.77743C6.92664 5.81752 6.935 5.86037 6.935 5.90612H8.935ZM8.46004 6.21041L11.5568 3.79988L10.3283 2.22165L7.23155 4.63218L8.46004 6.21041ZM10.3217 3.79465C10.7786 4.15654 11.3587 4.37525 11.9883 4.37525V2.37525C11.8284 2.37525 11.6821 2.3208 11.5635 2.22687L10.3217 3.79465ZM11.9883 4.37525C12.1319 4.37525 12.2722 4.36368 12.4083 4.34222L12.0967 2.36665C12.0605 2.37235 12.0244 2.37525 11.9883 2.37525V4.37525ZM11.3305 3.74161L12.3545 6.18007L14.1985 5.40571L13.1745 2.96726L11.3305 3.74161ZM12.3544 6.17995C12.4613 6.43462 12.6411 6.65203 12.8711 6.80489L13.9781 5.13918C14.0762 5.20441 14.1529 5.29717 14.1985 5.40583L12.3544 6.17995ZM12.8711 6.80489C13.1011 6.95776 13.3712 7.03927 13.6473 7.03921L13.6468 5.03921C13.7647 5.03918 13.8799 5.07395 13.9781 5.13918L12.8711 6.80489ZM13.6473 7.03921C13.834 7.03916 14.0187 7.00181 14.1908 6.92934L13.4143 5.08623C13.4879 5.05521 13.567 5.03922 13.6468 5.03921L13.6473 7.03921ZM14.1898 6.92974C14.9035 6.62993 15.2391 5.80836 14.9394 5.09459L13.0954 5.86886C12.9675 5.5643 13.1107 5.21374 13.4152 5.08582L14.1898 6.92974ZM14.9394 5.09454L13.9151 2.6554L12.0711 3.42978L13.0954 5.86892L14.9394 5.09454ZM13.5901 3.84483C13.7242 3.74505 13.8487 3.63301 13.9621 3.51018L12.4924 2.15373C12.463 2.18552 12.4308 2.21451 12.3961 2.24034L13.5901 3.84483ZM12.7433 3.70705L17.5322 6.35542L18.5001 4.60522L13.7112 1.95686L12.7433 3.70705ZM17.0374 5.27514C17.0039 5.43482 16.987 5.59755 16.9871 5.76073L18.9871 5.76053C18.9871 5.73533 18.9897 5.71018 18.9948 5.6855L17.0374 5.27514ZM16.9871 5.76063C16.9871 6.51867 17.3458 7.1922 17.8949 7.62281L19.129 6.04895C19.0398 5.97899 18.9871 5.87492 18.9871 5.76063H16.9871ZM17.5779 6.47879L15.8945 10.8821L17.7627 11.5963L19.4461 7.19298L17.5779 6.47879ZM16.905 10.2421C16.8401 10.2372 16.7751 10.2346 16.7101 10.2343L16.7019 12.2343C16.7187 12.2343 16.7355 12.235 16.7522 12.2363L16.905 10.2421ZM16.706 10.2343C16.5624 10.2343 16.4221 10.2458 16.286 10.2673L16.5977 12.2429C16.6338 12.2372 16.6699 12.2343 16.706 12.2343V10.2343ZM17.3639 10.8679L16.3399 8.42949L14.4959 9.20386L15.5199 11.6423L17.3639 10.8679ZM16.3399 8.42945C16.04 7.71552 15.2183 7.38008 14.5046 7.67979L15.279 9.52378C14.9745 9.65167 14.6239 9.50854 14.4959 9.2039L16.3399 8.42945ZM14.5045 7.67982C13.7908 7.97964 13.4552 8.8012 13.7549 9.51497L15.599 8.74071C15.7268 9.04527 15.5836 9.39582 15.2791 9.52374L14.5045 7.67982ZM13.7549 9.51503L14.7792 11.9541L16.6232 11.1797L15.5989 8.74065L13.7549 9.51503ZM15.1046 10.7644C14.4487 11.252 14.0184 12.0367 14.0184 12.9219H16.0184C16.0184 12.6983 16.1257 12.4974 16.2979 12.3694L15.1046 10.7644ZM14.0187 12.9464L14.0188 12.9513L16.0182 12.9023L16.0181 12.8974L14.0187 12.9464ZM14.781 11.9554L11.3607 12.7918L11.8357 14.7345L15.256 13.8981L14.781 11.9554ZM12.447 13.2344C12.0315 12.5675 11.2882 12.1172 10.438 12.1172V14.1172C10.5661 14.1172 10.6822 14.184 10.7494 14.2919L12.447 13.2344ZM10.438 12.1172C9.13238 12.1172 8.07182 13.1777 8.07182 14.4834H10.0718C10.0718 14.2823 10.237 14.1172 10.438 14.1172V12.1172ZM8.07182 14.4834C8.07182 15.549 8.77729 16.4475 9.74157 16.7448L10.3308 14.8335C10.1794 14.7868 10.0718 14.6447 10.0718 14.4834H8.07182ZM9.03618 15.7891V17.328H11.0362V15.7891H9.03618ZM9.7415 16.3724C8.77731 16.6698 8.07182 17.5682 8.07182 18.6338H10.0718C10.0718 18.4725 10.1794 18.3304 10.3308 18.2836L9.7415 16.3724ZM8.07182 18.6338C8.07182 19.9394 9.13238 21 10.438 21V19C10.237 19 10.0718 18.8349 10.0718 18.6338H8.07182ZM10.438 21C11.7436 21 12.8042 19.9394 12.8042 18.6338H10.8042C10.8042 18.8349 10.639 19 10.438 19V21ZM12.8042 18.6338C12.8042 17.5682 12.0987 16.6697 11.1344 16.3724L10.5452 18.2837C10.6966 18.3303 10.8042 18.4724 10.8042 18.6338H12.8042ZM11.8398 17.328V15.7891H9.83981V17.328H11.8398ZM11.1345 16.7447C12.0692 16.4565 12.7596 15.6042 12.8019 14.5818L10.8036 14.4991C10.7972 14.6536 10.6912 14.7885 10.5451 14.8335L11.1345 16.7447ZM12.0402 15.5118L15.4501 14.678L14.975 12.7353L11.5652 13.569L12.0402 15.5118ZM14.3281 14.1733C14.7765 15.0232 15.6716 15.6095 16.7059 15.6095V13.6095C16.4455 13.6095 16.2145 13.4627 16.097 13.24L14.3281 14.1733ZM16.7059 15.6095C18.1888 15.6095 19.3936 14.4047 19.3936 12.9219H17.3936C17.3936 13.3002 17.0842 13.6095 16.7059 13.6095V15.6095ZM19.3936 12.9219C19.3936 11.9555 18.8813 11.1103 18.1218 10.6383L17.0662 12.337C17.2657 12.461 17.3936 12.6784 17.3936 12.9219H19.3936ZM18.528 11.8448L20.1964 7.48056L18.3283 6.76637L16.6599 11.1306L18.528 11.8448ZM19.197 8.12132C19.2399 8.12414 19.2934 8.1268 19.3532 8.1268V6.1268C19.3519 6.1268 19.345 6.12673 19.3277 6.1256L19.197 8.12132ZM19.3532 8.1268C20.6588 8.1268 21.7194 7.06624 21.7194 5.76063H19.7194C19.7194 5.96166 19.5542 6.1268 19.3532 6.1268V8.1268ZM21.7194 5.76063C21.7194 4.45502 20.6588 3.39449 19.3532 3.39449V5.39449C19.5543 5.39449 19.7194 5.55959 19.7194 5.76063H21.7194Z" fill="#282828" mask="url(#path-1-inside-1_12_347)"/>
</svg>
